<?xml version="1.0" encoding="utf-8"?>
<svg version="1.1" xmlns:xlink="http://www.w3.org/1999/xlink" width="36px" height="50px" xmlns="http://www.w3.org/2000/svg">
  <g transform="matrix(1 0 0 1 -182 -83 )">
    <path d="M 21.9259980525803 49.6626420454545  C 21.7039922103213 49.8875473484848  21.4410905550146 50  21.1372930866602 50  L 15.1080817916261 50  C 14.8042843232717 50  14.5413826679649 49.8934659090909  14.3193768257059 49.6803977272727  C 14.0973709834469 49.4673295454545  13.9863680623174 49.1950757575758  14 48.8636363636364  L 14 37  L 3.89094449853944 37  C 3.58714703018501 37.1448863636364  3.32424537487829 37.0383522727273  3.10223953261928 36.8252840909091  C 2.88023369036027 36.6122159090909  2.76923076923077 36.3399621212121  2.76923076923077 36.0085227272727  L 2.76923076923077 32.3508522727273  C 2.76923076923077 32.0430871212121  2.88023369036027 31.7767518939394  3.10223953261928 31.5518465909091  C 3.32424537487829 31.3269412878788  3.58714703018501 31.2144886363636  3.89094449853944 31  L 13.9863680623174 31  L 13.9863680623174 28  L 3.89094449853944 28  C 3.58714703018501 28.1960227272727  3.32424537487829 28.0894886363636  3.10223953261928 27.8764204545455  C 2.88023369036027 27.6633522727273  2.76923076923077 27.3910984848485  2.76923076923077 27.0596590909091  L 2.76923076923077 23.3664772727273  C 2.76923076923077 23.0587121212121  2.88023369036027 22.7923768939394  3.10223953261928 22.5674715909091  C 3.32424537487829 22.3425662878788  3.58714703018501 22.2301136363636  3.89094449853944 22.2301136363636  L 11.3924050632911 22.2301136363636  L 0.140214216163583 1.70454545454545  C -0.0467380720545278 1.32575757575757  -0.0467380720545278 0.946969696969691  0.140214216163583 0.568181818181818  C 0.373904576436222 0.189393939393939  0.701071080817916 0  1.12171372930867 0  L 7.92210321324245 0  C 8.36611489776047 0  8.70496592015579 0.213068181818182  8.93865628042843 0.639204545454547  L 16.475170399221 15.7315340909091  C 16.919182083739 16.6311553030303  17.5735150925024 18.1107954545455  18.4381694255112 20.1704545454545  C 18.6718597857838 19.6022727272727  19.0282375851996 18.7973484848485  19.5073028237585 17.7556818181818  C 19.9863680623174 16.7140151515151  20.3076923076923 15.9919507575758  20.4712755598832 15.5894886363636  L 27.1665043816943 0.674715909090912  C 27.3534566699124 0.224905303030298  27.6923076923077 0  28.1830574488802 0  L 34.8782862706913 0  C 35.2755598831548 0  35.5910418695229 0.189393939393939  35.8247322297955 0.568181818181818  C 36.0350535540409 0.89962121212121  36.0467380720545 1.26657196969697  35.8597857838364 1.66903409090909  L 24.888023369036 22.2301136363636  L 32.4245374878286 22.2301136363636  C 32.7283349561831 22.2301136363636  32.9912366114898 22.3425662878788  33.2132424537488 22.5674715909091  C 33.4352482960078 22.7923768939394  33.5462512171373 23.0587121212121  33.5462512171373 23.3664772727273  L 33.5462512171373 27.0596590909091  C 33.5462512171373 27.3910984848485  33.4352482960078 27.6633522727273  33.2132424537488 27.8764204545455  C 32.9912366114898 28.0894886363636  32.7283349561831 28.1960227272727  32.4245374878286 28  L 22.2590068159688 28  L 22.2590068159688 31  L 32.4245374878286 31  C 32.7283349561831 31.2144886363636  32.9912366114898 31.3269412878788  33.2132424537488 31.5518465909091  C 33.4352482960078 31.7767518939394  33.5462512171373 32.0430871212121  33.5462512171373 32.3508522727273  L 33.5462512171373 36.0085227272727  C 33.5462512171373 36.3399621212121  33.4352482960078 36.6122159090909  33.2132424537488 36.8252840909091  C 32.9912366114898 37.0383522727273  32.7283349561831 37.1448863636364  32.4245374878286 37  L 22 37  L 22 48.8636363636364  C 22.2590068159688 49.1714015151515  22.1480038948393 49.4377367424242  21.9259980525803 49.6626420454545  Z " fill-rule="nonzero" fill="#375ea0" stroke="none" transform="matrix(1 0 0 1 182 83 )" />
  </g>
</svg>