<?xml version="1.0" encoding="utf-8"?>
<svg version="1.1" xmlns:xlink="http://www.w3.org/1999/xlink" width="50px" height="50px" xmlns="http://www.w3.org/2000/svg">
  <g transform="matrix(1 0 0 1 -175 -83 )">
    <path d="M 40.4296875 40.4296875  C 41.2543402777778 39.6050347222222  41.6666666666667 38.6284722222222  41.6666666666667 37.5  C 41.6666666666667 36.3715277777778  41.2543402777778 35.3949652777778  40.4296875 34.5703125  C 39.6050347222222 33.7456597222222  38.6284722222222 33.3333333333333  37.5 33.3333333333333  C 36.3715277777778 33.3333333333333  35.3949652777778 33.7456597222222  34.5703125 34.5703125  C 33.7456597222222 35.3949652777778  33.3333333333333 36.3715277777778  33.3333333333333 37.5  C 33.3333333333333 38.6284722222222  33.7456597222222 39.6050347222222  34.5703125 40.4296875  C 35.3949652777778 41.2543402777778  36.3715277777778 41.6666666666667  37.5 41.6666666666667  C 38.6284722222222 41.6666666666667  39.6050347222222 41.2543402777778  40.4296875 40.4296875  Z M 15.4296875 15.4296875  C 16.2543402777778 14.6050347222222  16.6666666666667 13.6284722222222  16.6666666666667 12.5  C 16.6666666666667 11.3715277777778  16.2543402777778 10.3949652777778  15.4296875 9.5703125  C 14.6050347222222 8.74565972222222  13.6284722222222 8.33333333333333  12.5 8.33333333333333  C 11.3715277777778 8.33333333333333  10.3949652777778 8.74565972222222  9.5703125 9.5703125  C 8.74565972222222 10.3949652777778  8.33333333333333 11.3715277777778  8.33333333333333 12.5  C 8.33333333333333 13.6284722222222  8.74565972222222 14.6050347222222  9.5703125 15.4296875  C 10.3949652777778 16.2543402777778  11.3715277777778 16.6666666666667  12.5 16.6666666666667  C 13.6284722222222 16.6666666666667  14.6050347222222 16.2543402777778  15.4296875 15.4296875  Z M 46.337890625 28.662109375  C 48.779296875 31.103515625  50 34.0494791666667  50 37.5  C 50 40.9505208333333  48.779296875 43.896484375  46.337890625 46.337890625  C 43.896484375 48.779296875  40.9505208333333 50  37.5 50  C 34.0494791666667 50  31.103515625 48.779296875  28.662109375 46.337890625  C 26.220703125 43.896484375  25 40.9505208333333  25 37.5  C 25 34.0494791666667  26.220703125 31.103515625  28.662109375 28.662109375  C 31.103515625 26.220703125  34.0494791666667 25  37.5 25  C 40.9505208333333 25  43.896484375 26.220703125  46.337890625 28.662109375  Z M 46.2565104166667 0.618489583333331  C 46.6688368055556 1.03081597222222  46.875 1.51909722222222  46.875 2.08333333333333  C 46.875 2.51736111111111  46.7339409722222 2.9296875  46.4518229166667 3.3203125  L 12.0768229166667 49.1536458333333  C 11.6644965277778 49.7178819444444  11.1111111111111 50  10.4166666666667 50  L 5.20833333333333 50  C 4.64409722222222 50  4.15581597222222 49.7938368055556  3.74348958333333 49.3815104166667  C 3.33116319444444 48.9691840277778  3.125 48.4809027777778  3.125 47.9166666666667  C 3.125 47.4826388888889  3.26605902777778 47.0703125  3.54817708333333 46.6796875  L 37.9231770833333 0.846354166666669  C 38.3355034722222 0.282118055555552  38.8888888888889 0  39.5833333333333 0  L 44.7916666666667 0  C 45.3559027777778 0  45.8441840277778 0.206163194444442  46.2565104166667 0.618489583333331  Z M 21.337890625 3.662109375  C 23.779296875 6.103515625  25 9.04947916666667  25 12.5  C 25 15.9505208333333  23.779296875 18.896484375  21.337890625 21.337890625  C 18.896484375 23.779296875  15.9505208333333 25  12.5 25  C 9.04947916666667 25  6.103515625 23.779296875  3.662109375 21.337890625  C 1.220703125 18.896484375  0 15.9505208333333  0 12.5  C 0 9.04947916666667  1.220703125 6.103515625  3.662109375 3.662109375  C 6.103515625 1.220703125  9.04947916666667 0  12.5 0  C 15.9505208333333 0  18.896484375 1.220703125  21.337890625 3.662109375  Z " fill-rule="nonzero" fill="#375ea0" stroke="none" transform="matrix(1 0 0 1 175 83 )" />
  </g>
</svg>