<?xml version="1.0" encoding="utf-8"?>
<svg version="1.1" xmlns:xlink="http://www.w3.org/1999/xlink" width="50px" height="50px" xmlns="http://www.w3.org/2000/svg">
  <g transform="matrix(1 0 0 1 -175 -83 )">
    <path d="M 35.302734375 35.302734375  C 37.0496961805556 33.5557725694444  38.2703993055556 31.5104166666667  38.96484375 29.1666666666667  L 35.4166666666667 29.1666666666667  C 34.8524305555556 29.1666666666667  34.3641493055556 28.9605034722222  33.9518229166667 28.5481770833333  C 33.5394965277778 28.1358506944444  33.3333333333333 27.6475694444444  33.3333333333333 27.0833333333333  L 33.3333333333333 22.9166666666667  C 33.3333333333333 22.3524305555556  33.5394965277778 21.8641493055556  33.9518229166667 21.4518229166667  C 34.3641493055556 21.0394965277778  34.8524305555556 20.8333333333333  35.4166666666667 20.8333333333333  L 38.96484375 20.8333333333333  C 38.2703993055556 18.4895833333333  37.0496961805556 16.4442274305556  35.302734375 14.697265625  C 33.5557725694445 12.9503038194444  31.5104166666667 11.7296006944444  29.1666666666667 11.03515625  L 29.1666666666667 14.5833333333333  C 29.1666666666667 15.1475694444444  28.9605034722222 15.6358506944444  28.5481770833333 16.0481770833333  C 28.1358506944444 16.4605034722222  27.6475694444444 16.6666666666667  27.0833333333333 16.6666666666667  L 22.9166666666667 16.6666666666667  C 22.3524305555556 16.6666666666667  21.8641493055556 16.4605034722222  21.4518229166667 16.0481770833333  C 21.0394965277778 15.6358506944444  20.8333333333333 15.1475694444444  20.8333333333333 14.5833333333333  L 20.8333333333333 11.03515625  C 18.4895833333333 11.7296006944444  16.4442274305556 12.9503038194444  14.697265625 14.697265625  C 12.9503038194444 16.4442274305556  11.7296006944444 18.4895833333333  11.03515625 20.8333333333333  L 14.5833333333333 20.8333333333333  C 15.1475694444444 20.8333333333333  15.6358506944444 21.0394965277778  16.0481770833333 21.4518229166667  C 16.4605034722222 21.8641493055556  16.6666666666667 22.3524305555556  16.6666666666667 22.9166666666667  L 16.6666666666667 27.0833333333333  C 16.6666666666667 27.6475694444444  16.4605034722222 28.1358506944444  16.0481770833333 28.5481770833333  C 15.6358506944444 28.9605034722222  15.1475694444444 29.1666666666667  14.5833333333333 29.1666666666667  L 11.03515625 29.1666666666667  C 11.7296006944444 31.5104166666667  12.9503038194444 33.5557725694444  14.697265625 35.302734375  C 16.4442274305556 37.0496961805556  18.4895833333333 38.2703993055556  20.8333333333333 38.96484375  L 20.8333333333333 35.4166666666667  C 20.8333333333333 34.8524305555556  21.0394965277778 34.3641493055556  21.4518229166667 33.9518229166667  C 21.8641493055556 33.5394965277778  22.3524305555556 33.3333333333333  22.9166666666667 33.3333333333333  L 27.0833333333333 33.3333333333333  C 27.6475694444444 33.3333333333333  28.1358506944444 33.5394965277778  28.5481770833333 33.9518229166667  C 28.9605034722222 34.3641493055556  29.1666666666667 34.8524305555556  29.1666666666667 35.4166666666667  L 29.1666666666667 38.96484375  C 31.5104166666667 38.2703993055556  33.5557725694445 37.0496961805556  35.302734375 35.302734375  Z M 49.3815104166667 21.4518229166667  C 49.7938368055556 21.8641493055556  50 22.3524305555556  50 22.9166666666667  L 50 27.0833333333333  C 50 27.6475694444444  49.7938368055556 28.1358506944444  49.3815104166667 28.5481770833333  C 48.9691840277778 28.9605034722222  48.4809027777778 29.1666666666667  47.9166666666667 29.1666666666667  L 43.26171875 29.1666666666667  C 42.4587673611111 32.6605902777778  40.7823350694445 35.6825086805556  38.232421875 38.232421875  C 35.6825086805556 40.7823350694444  32.6605902777778 42.4587673611111  29.1666666666667 43.26171875  L 29.1666666666667 47.9166666666667  C 29.1666666666667 48.4809027777778  28.9605034722222 48.9691840277778  28.5481770833333 49.3815104166667  C 28.1358506944444 49.7938368055556  27.6475694444444 50  27.0833333333333 50  L 22.9166666666667 50  C 22.3524305555556 50  21.8641493055556 49.7938368055556  21.4518229166667 49.3815104166667  C 21.0394965277778 48.9691840277778  20.8333333333333 48.4809027777778  20.8333333333333 47.9166666666667  L 20.8333333333333 43.26171875  C 17.3394097222222 42.4587673611111  14.3174913194444 40.7823350694444  11.767578125 38.232421875  C 9.21766493055556 35.6825086805556  7.54123263888889 32.6605902777778  6.73828125 29.1666666666667  L 2.08333333333333 29.1666666666667  C 1.51909722222222 29.1666666666667  1.03081597222222 28.9605034722222  0.618489583333333 28.5481770833333  C 0.206163194444444 28.1358506944444  0 27.6475694444444  0 27.0833333333333  L 0 22.9166666666667  C 0 22.3524305555556  0.206163194444444 21.8641493055556  0.618489583333333 21.4518229166667  C 1.03081597222222 21.0394965277778  1.51909722222222 20.8333333333333  2.08333333333333 20.8333333333333  L 6.73828125 20.8333333333333  C 7.54123263888889 17.3394097222222  9.21766493055556 14.3174913194444  11.767578125 11.767578125  C 14.3174913194444 9.21766493055555  17.3394097222222 7.54123263888888  20.8333333333333 6.73828125  L 20.8333333333333 2.08333333333333  C 20.8333333333333 1.51909722222222  21.0394965277778 1.03081597222222  21.4518229166667 0.618489583333331  C 21.8641493055556 0.206163194444442  22.3524305555556 0  22.9166666666667 0  L 27.0833333333333 0  C 27.6475694444444 0  28.1358506944444 0.206163194444442  28.5481770833333 0.618489583333331  C 28.9605034722222 1.03081597222222  29.1666666666667 1.51909722222222  29.1666666666667 2.08333333333333  L 29.1666666666667 6.73828125  C 32.6605902777778 7.54123263888888  35.6825086805556 9.21766493055555  38.232421875 11.767578125  C 40.7823350694445 14.3174913194444  42.4587673611111 17.3394097222222  43.26171875 20.8333333333333  L 47.9166666666667 20.8333333333333  C 48.4809027777778 20.8333333333333  48.9691840277778 21.0394965277778  49.3815104166667 21.4518229166667  Z " fill-rule="nonzero" fill="#375ea0" stroke="none" transform="matrix(1 0 0 1 175 83 )" />
  </g>
</svg>