<?xml version="1.0" encoding="utf-8"?>
<svg version="1.1" xmlns:xlink="http://www.w3.org/1999/xlink" width="160px" height="120px" xmlns="http://www.w3.org/2000/svg">
  <g transform="matrix(1 0 0 1 -1732 -423 )">
    <path d="M 105.833333333333 70.2272727272727  C 106.388888888889 69.5454545454545  106.666666666667 68.8636363636364  106.666666666667 68.1818181818182  C 106.666666666667 67.3863636363636  106.416666666667 66.7329545454545  105.916666666667 66.2215909090909  C 105.416666666667 65.7102272727273  104.777777777778 65.4545454545455  104 65  L 85 65  L 85 35.4545454545455  C 85.3333333333333 34.7159090909091  85.0694444444444 34.0767045454545  84.5416666666667 33.5369318181818  C 84.0138888888889 32.9971590909091  83.3888888888889 32.7272727272727  82.6666666666667 33  L 66.6666666666667 33  C 65.9444444444445 32.7272727272727  65.3194444444445 32.9971590909091  64.7916666666667 33.5369318181818  C 64.2638888888889 34.0767045454545  64 34.7159090909091  64 35.4545454545455  L 64 65  L 45.3333333333333 65  C 44.6111111111111 65.4545454545455  43.9861111111111 65.7244318181818  43.4583333333333 66.2642045454545  C 42.9305555555556 66.8039772727273  42.6666666666667 67.4431818181818  42.6666666666667 68.1818181818182  C 42.6666666666667 68.9772727272727  42.9166666666667 69.6306818181818  43.4166666666667 70.1420454545455  L 72.75 100.142045454545  C 73.25 100.653409090909  73.8888888888889 100.909090909091  74.6666666666667 100.909090909091  C 75.4444444444445 100.909090909091  76.0833333333333 100.653409090909  76.5833333333333 100.142045454545  L 105.833333333333 70.2272727272727  Z M 153.041666666667 66.9460227272727  C 157.680555555556 72.8835227272727  160 79.6590909090909  160 87.2727272727273  C 160 96.3068181818182  156.875 104.019886363636  150.625 110.411931818182  C 144.375 116.803977272727  136.833333333333 120  128 120  L 37.3333333333333 120  C 27.0555555555556 120  18.2638888888889 116.264204545455  10.9583333333333 108.792613636364  C 3.65277777777778 101.321022727273  0 92.3295454545455  0 81.8181818181818  C 0 74.4318181818182  1.94444444444444 67.6136363636364  5.83333333333333 61.3636363636364  C 9.72222222222222 55.1136363636363  14.9444444444444 50.4261363636363  21.5 47.3011363636364  C 21.3888888888889 45.5965909090909  21.3333333333333 44.375  21.3333333333333 43.6363636363636  C 21.3333333333333 31.5909090909091  25.5 21.3068181818182  33.8333333333333 12.7840909090909  C 42.1666666666667 4.26136363636364  52.2222222222222 0  64 0  C 72.6666666666667 0  80.5972222222222 2.47159090909091  87.7916666666667 7.41477272727272  C 94.9861111111111 12.3579545454546  100.222222222222 18.9204545454546  103.5 27.1022727272727  C 107.444444444444 23.5795454545454  112.055555555556 21.8181818181818  117.333333333333 21.8181818181818  C 123.222222222222 21.8181818181818  128.25 23.9488636363636  132.416666666667 28.2102272727273  C 136.583333333333 32.4715909090909  138.666666666667 37.6136363636364  138.666666666667 43.6363636363636  C 138.666666666667 47.9545454545454  137.527777777778 51.875  135.25 55.3977272727273  C 142.472222222222 57.1590909090909  148.402777777778 61.0085227272727  153.041666666667 66.9460227272727  Z " fill-rule="nonzero" fill="#0d64e8" stroke="none" transform="matrix(1 0 0 1 1732 423 )" />
  </g>
</svg>