<?xml version="1.0" encoding="utf-8"?>
<svg version="1.1" xmlns:xlink="http://www.w3.org/1999/xlink" width="160px" height="120px" xmlns="http://www.w3.org/2000/svg">
  <g transform="matrix(1 0 0 1 -454 -22 )">
    <path d="M 153 66.8607954545455  C 157.666666666667 72.7982954545455  160 79.6022727272727  160 87.2727272727273  C 160 96.3068181818182  156.875 104.019886363636  150.625 110.411931818182  C 144.375 116.803977272727  136.833333333333 120  128 120  L 37.3333333333333 120  C 27.0555555555556 120  18.2638888888889 116.264204545455  10.9583333333333 108.792613636364  C 3.65277777777778 101.321022727273  0 92.3295454545455  0 81.8181818181818  C 0 74.3181818181818  1.97222222222222 67.4573863636364  5.91666666666667 61.2357954545455  C 9.86111111111111 55.0142045454545  15.0555555555556 50.3693181818182  21.5 47.3011363636364  C 21.3888888888889 45.7102272727273  21.3333333333333 44.4886363636364  21.3333333333333 43.6363636363636  C 21.3333333333333 31.5909090909091  25.5 21.3068181818182  33.8333333333333 12.7840909090909  C 42.1666666666667 4.26136363636364  52.2222222222222 0  64 0  C 72.7777777777778 0  80.7361111111111 2.49999999999999  87.875 7.5  C 95.0138888888889 12.5  100.222222222222 19.0340909090909  103.5 27.1022727272727  C 107.388888888889 23.5795454545454  112 21.8181818181818  117.333333333333 21.8181818181818  C 123.222222222222 21.8181818181818  128.25 23.9488636363636  132.416666666667 28.2102272727273  C 136.583333333333 32.4715909090909  138.666666666667 37.6136363636364  138.666666666667 43.6363636363636  C 138.666666666667 47.8977272727273  137.527777777778 51.8181818181818  135.25 55.3977272727273  C 142.416666666667 57.1022727272727  148.333333333333 60.9232954545454  153 66.8607954545455  Z " fill-rule="nonzero" fill="#0d64e8" stroke="none" transform="matrix(1 0 0 1 454 22 )" />
  </g>
</svg>