<?xml version="1.0" encoding="utf-8"?>
<svg version="1.1" xmlns:xlink="http://www.w3.org/1999/xlink" width="160px" height="120px" xmlns="http://www.w3.org/2000/svg">
  <g transform="matrix(1 0 0 1 -454 -422 )">
    <path d="M 33.8541666666667 48.5491071428571  C 48.1597222222222 50.46875  63.5416666666667 51.4285714285714  80 51.4285714285714  C 96.4583333333333 51.4285714285714  111.840277777778 50.46875  126.145833333333 48.5491071428571  C 140.451388888889 46.6294642857143  151.736111111111 43.7946428571429  160 40.0446428571429  L 160 51.4285714285714  C 160 54.5089285714286  156.423611111111 57.3660714285714  149.270833333333 60  C 142.118055555556 62.6339285714286  132.395833333333 64.7209821428571  120.104166666667 66.2611607142857  C 107.8125 67.8013392857143  94.4444444444444 68.5714285714286  80 68.5714285714286  C 65.5555555555556 68.5714285714286  52.1875 67.8013392857143  39.8958333333333 66.2611607142857  C 27.6041666666667 64.7209821428571  17.8819444444444 62.6339285714286  10.7291666666667 60  C 3.57638888888889 57.3660714285714  0 54.5089285714286  0 51.4285714285714  L 0 40.0446428571429  C 8.26388888888889 43.7946428571429  19.5486111111111 46.6294642857143  33.8541666666667 48.5491071428571  Z M 33.8541666666667 99.9776785714286  C 48.1597222222222 101.897321428571  63.5416666666667 102.857142857143  80 102.857142857143  C 96.4583333333333 102.857142857143  111.840277777778 101.897321428571  126.145833333333 99.9776785714286  C 140.451388888889 98.0580357142857  151.736111111111 95.2232142857143  160 91.4732142857143  L 160 102.857142857143  C 160 105.9375  156.423611111111 108.794642857143  149.270833333333 111.428571428571  C 142.118055555556 114.0625  132.395833333333 116.149553571429  120.104166666667 117.689732142857  C 107.8125 119.229910714286  94.4444444444444 120  80 120  C 65.5555555555556 120  52.1875 119.229910714286  39.8958333333333 117.689732142857  C 27.6041666666667 116.149553571429  17.8819444444444 114.0625  10.7291666666667 111.428571428571  C 3.57638888888889 108.794642857143  0 105.9375  0 102.857142857143  L 0 91.4732142857143  C 8.26388888888889 95.2232142857143  19.5486111111111 98.0580357142857  33.8541666666667 99.9776785714286  Z M 33.8541666666667 74.2633928571429  C 48.1597222222222 76.1830357142857  63.5416666666667 77.1428571428571  80 77.1428571428571  C 96.4583333333333 77.1428571428571  111.840277777778 76.1830357142857  126.145833333333 74.2633928571429  C 140.451388888889 72.34375  151.736111111111 69.5089285714286  160 65.7589285714286  L 160 77.1428571428571  C 160 80.2232142857143  156.423611111111 83.0803571428571  149.270833333333 85.7142857142857  C 142.118055555556 88.3482142857143  132.395833333333 90.4352678571429  120.104166666667 91.9754464285714  C 107.8125 93.515625  94.4444444444444 94.2857142857143  80 94.2857142857143  C 65.5555555555556 94.2857142857143  52.1875 93.515625  39.8958333333333 91.9754464285714  C 27.6041666666667 90.4352678571429  17.8819444444444 88.3482142857143  10.7291666666667 85.7142857142857  C 3.57638888888889 83.0803571428571  0 80.2232142857143  0 77.1428571428571  L 0 65.7589285714286  C 8.26388888888889 69.5089285714286  19.5486111111111 72.34375  33.8541666666667 74.2633928571429  Z M 39.8958333333333 2.31026785714285  C 52.1875 0.770089285714284  65.5555555555556 0  80 0  C 94.4444444444444 0  107.8125 0.770089285714284  120.104166666667 2.31026785714285  C 132.395833333333 3.85044642857143  142.118055555556 5.9375  149.270833333333 8.57142857142857  C 156.423611111111 11.2053571428571  160 14.0625  160 17.1428571428571  L 160 25.7142857142857  C 160 28.7946428571429  156.423611111111 31.6517857142857  149.270833333333 34.2857142857143  C 142.118055555556 36.9196428571429  132.395833333333 39.0066964285714  120.104166666667 40.546875  C 107.8125 42.0870535714286  94.4444444444444 42.8571428571429  80 42.8571428571429  C 65.5555555555556 42.8571428571429  52.1875 42.0870535714286  39.8958333333333 40.546875  C 27.6041666666667 39.0066964285714  17.8819444444444 36.9196428571429  10.7291666666667 34.2857142857143  C 3.57638888888889 31.6517857142857  0 28.7946428571429  0 25.7142857142857  L 0 17.1428571428571  C 0 14.0625  3.57638888888889 11.2053571428571  10.7291666666667 8.57142857142857  C 17.8819444444444 5.9375  27.6041666666667 3.85044642857143  39.8958333333333 2.31026785714285  Z " fill-rule="nonzero" fill="#0d64e8" stroke="none" transform="matrix(1 0 0 1 454 422 )" />
  </g>
</svg>