<?xml version="1.0" encoding="utf-8"?>
<svg version="1.1" xmlns:xlink="http://www.w3.org/1999/xlink" width="160px" height="120px" xmlns="http://www.w3.org/2000/svg">
  <g transform="matrix(1 0 0 1 -1092 -22 )">
    <path d="M 44.375 0.267857142857149  C 44.7916666666667 0.0892857142857206  45.2380952380952 0  45.7142857142857 0  C 46.4880952380952 0  47.1577380952381 0.212053571428577  47.7232142857143 0.636160714285716  C 48.2886904761905 1.06026785714286  48.5714285714286 1.56249999999999  49 2.14285714285715  L 49 100.714285714286  C 48.5714285714286 101.607142857143  48.0654761904762 102.232142857143  47.0535714285714 102.589285714286  L 4.19642857142857 119.732142857143  C 3.77976190476191 119.910714285714  3.33333333333333 120  2.85714285714286 120  C 2.08333333333333 120  1.41369047619048 119.787946428571  0.848214285714286 119.363839285714  C 0.282738095238095 118.939732142857  0 118.4375  0 117.857142857143  L 0 19.2857142857143  C 0 18.3928571428571  0.505952380952381 17.7678571428571  1.51785714285714 17.4107142857143  L 44.375 0.267857142857149  Z M 155.803571428571 0.267857142857149  C 156.220238095238 0.0892857142857206  156.666666666667 0  157.142857142857 0  C 157.916666666667 0  158.58630952381 0.212053571428577  159.151785714286 0.636160714285716  C 159.717261904762 1.06026785714286  160 1.56249999999999  160 2.14285714285715  L 160 100.714285714286  C 160 101.607142857143  159.494047619048 102.232142857143  158.482142857143 102.589285714286  L 115.625 119.732142857143  C 115.208333333333 119.910714285714  114.761904761905 120  114.285714285714 120  C 113.511904761905 120  112.842261904762 119.787946428571  112.276785714286 119.363839285714  C 111.71130952381 118.939732142857  111.428571428571 118.4375  111 117.857142857143  L 111 19.2857142857143  C 111.428571428571 18.3928571428571  111.934523809524 17.7678571428571  112.946428571429 17.4107142857143  L 155.803571428571 0.267857142857149  Z M 55.1339285714286 0.636160714285716  C 55.6994047619048 0.212053571428577  56.3690476190476 0  57.1428571428571 0  C 57.6190476190476 0  58.0357142857143 0.0669642857142838  58.3928571428571 0.200892857142851  L 104.107142857143 17.34375  C 105.178571428571 17.7901785714286  105.714285714286 18.4375  105 19.2857142857143  L 105 117.857142857143  C 105.714285714286 118.4375  105.431547619048 118.939732142857  104.866071428571 119.363839285714  C 104.300595238095 119.787946428571  103.630952380952 120  102.857142857143 120  C 102.380952380952 120  101.964285714286 119.933035714286  101.607142857143 119.799107142857  L 55.8928571428571 102.65625  C 54.8214285714286 102.209821428571  54.2857142857143 101.5625  55 100.714285714286  L 55 2.14285714285715  C 54.2857142857143 1.56249999999999  54.5684523809524 1.06026785714286  55.1339285714286 0.636160714285716  Z " fill-rule="nonzero" fill="#0d64e8" stroke="none" transform="matrix(1 0 0 1 1092 22 )" />
  </g>
</svg>