<?xml version="1.0" encoding="utf-8"?>
<svg version="1.1" xmlns:xlink="http://www.w3.org/1999/xlink" width="160px" height="120px" xmlns="http://www.w3.org/2000/svg">
  <g transform="matrix(1 0 0 1 -1092 -423 )">
    <path d="M 73.7730243612597 39.1959798994975  C 77.3222420281244 36.3819095477387  79.0968508615567 32.964824120603  79.0968508615567 28.9447236180905  C 79.0968508615567 24.9246231155779  77.3222420281244 21.5075376884422  73.7730243612597 18.6934673366834  C 70.2238066943949 15.8793969849246  65.9140423846306 14.4723618090452  60.8437314319667 14.4723618090452  C 55.7734204793028 14.4723618090452  51.4636561695385 15.8793969849246  47.9144385026738 18.6934673366834  C 44.3652208358091 21.5075376884422  42.5906120023767 24.9246231155779  42.5906120023767 28.9447236180905  C 42.5906120023767 31.0552763819095  43.1927114280056 33.1407035175879  44.3969102792632 35.2010050251256  C 41.798375916023 34.2462311557789  39.1681521093286 33.7688442211055  36.50623885918 33.7688442211055  C 31.4359279065161 33.7688442211055  27.1261635967518 35.1758793969849  23.5769459298871 37.9899497487437  C 20.0277282630224 40.8040201005025  18.25311942959 44.2211055276382  18.25311942959 48.2412060301507  C 18.25311942959 52.2613065326633  20.0277282630224 55.678391959799  23.5769459298871 58.4924623115578  C 27.1261635967518 61.3065326633166  31.4359279065161 62.713567839196  36.50623885918 62.713567839196  C 41.5765498118439 62.713567839196  45.8863141216082 61.3065326633166  49.435531788473 58.4924623115578  C 52.9847494553377 55.678391959799  54.7593582887701 52.2613065326633  54.7593582887701 48.2412060301507  C 54.7593582887701 46.1306532663316  54.1572588631412 44.0452261306533  52.9530600118835 41.9849246231156  C 55.5515943751238 42.9396984924623  58.1818181818182 43.4170854271357  60.8437314319667 43.4170854271357  C 65.9140423846306 43.4170854271357  70.2238066943949 42.0100502512563  73.7730243612597 39.1959798994975  Z M 157.29055258467 78.9195979899498  C 159.096850861557 80.5778894472362  160 81.608040201005  160 82.0100502512563  C 160 82.8643216080402  158.447217270747 84.5226130653266  155.34165181224 86.9849246231156  C 152.236086353733 89.4472361809045  150.14458308576 90.678391959799  149.067142008318 90.678391959799  C 148.496732026144 90.678391959799  147.593582887701 90.2763819095477  146.357694592989 89.4723618090452  C 145.121806298277 88.6683417085427  143.9651416122 87.8391959798995  142.887700534759 86.9849246231156  C 141.810259457318 86.1306532663316  140.590215884334 85.1256281407035  139.227569815805 83.9698492462311  C 137.864923747277 82.8140703517588  137.08853238265 82.1608040201005  136.898395721925 82.0100502512563  L 127.77183600713 89.2462311557789  L 148.686868686869 105.829145728643  C 150.461477520301 107.236180904523  151.348781937017 108.94472361809  151.348781937017 110.954773869347  C 151.348781937017 113.065326633166  150.112893642305 115.100502512563  147.641117052882 117.060301507538  C 145.169340463458 119.020100502513  142.602495543672 120  139.940582293523 120  C 137.405426817192 120  135.250544662309 119.29648241206  133.475935828877 117.889447236181  L 69.6850861556744 67.3115577889447  C 58.5304020598138 73.8944723618091  46.9637551990493 77.1859296482412  34.9851455733809 77.1859296482412  C 24.6543870073282 77.1859296482412  16.2408397702515 74.6105527638191  9.74450386215092 69.4597989949749  C 3.24816795405031 64.3090452261307  0 57.6381909547739  0 49.4472361809045  C 0 41.4070351758794  3.01049712814419 33.5427135678392  9.03149138443256 25.8542713567839  C 15.0524856407209 18.1658291457286  22.91146761735 11.9346733668342  32.6084373143197 7.16080402010051  C 42.3054070112894 2.38693467336683  52.2242028124381 0  62.3648247177659 0  C 72.6955832838186 0  81.1091305208952 2.5753768844221  87.6054664289958 7.72613065326633  C 94.1018023370965 12.8768844221105  97.3499702911468 19.5477386934673  97.3499702911468 27.7386934673367  C 97.3499702911468 37.2361809045226  93.1986531986532 46.4070351758794  84.8960190136661 55.251256281407  L 118.645276292335 82.0100502512563  L 127.77183600713 74.7738693467337  C 127.581699346405 74.6231155778895  126.757773816597 74.0075376884422  125.300059417706 72.927135678392  C 123.842345018816 71.8467336683417  122.57476728065 70.8793969849246  121.497326203209 70.0251256281407  C 120.419885125767 69.1708542713568  119.374133491781 68.2537688442211  118.360071301248 67.2738693467337  C 117.346009110715 66.2939698492462  116.838978015449 65.5778894472362  116.838978015449 65.1256281407035  C 116.838978015449 64.2713567839196  118.391760744702 62.6130653266332  121.497326203209 60.1507537688442  C 124.602891661715 57.6884422110553  126.694394929689 56.4572864321608  127.77183600713 56.4572864321608  C 128.595761536938 56.4572864321608  129.324618736383 56.7085427135678  129.958407605466 57.2110552763819  C 130.338680926916 57.5125628140704  131.796395325807 58.6306532663316  134.331550802139 60.5653266331658  C 136.866706278471 62.5  139.465240641711 64.4974874371859  142.12715389186 66.5577889447236  C 144.789067142008 68.6180904522613  147.530204000792 70.7788944723618  150.350564468212 73.0402010050251  C 153.170924935631 75.3015075376884  155.484254307784 77.2613065326633  157.29055258467 78.9195979899498  Z " fill-rule="nonzero" fill="#0d64e8" stroke="none" transform="matrix(1 0 0 1 1092 423 )" />
  </g>
</svg>