<?xml version="1.0" encoding="utf-8"?>
<svg version="1.1" xmlns:xlink="http://www.w3.org/1999/xlink" width="160px" height="120px" xmlns="http://www.w3.org/2000/svg">
  <g transform="matrix(1 0 0 1 -1732 -22 )">
    <path d="M 91 98  L 91 109  L 148 109  L 148 98  L 91 98  Z M 58 55  L 58 65  L 148 65  L 148 55  L 58 55  Z M 114 11  L 114 22  L 148 22  L 148 11  L 114 11  Z M 158.303571428571 88.8920454545455  C 159.434523809524 89.9715909090909  160 91.25  160 92.7272727272727  L 160 114.545454545455  C 160 116.022727272727  159.434523809524 117.301136363636  158.303571428571 118.380681818182  C 157.172619047619 119.460227272727  155.833333333333 120  154.285714285714 120  L 5.71428571428571 120  C 4.16666666666667 120  2.82738095238095 119.460227272727  1.69642857142857 118.380681818182  C 0.56547619047619 117.301136363636  0 116.022727272727  0 114.545454545455  L 0 92.7272727272727  C 0 91.25  0.56547619047619 89.9715909090909  1.69642857142857 88.8920454545455  C 2.82738095238095 87.8125  4.16666666666667 87.2727272727273  5.71428571428571 87  L 154.285714285714 87  C 155.833333333333 87.2727272727273  157.172619047619 87.8125  158.303571428571 88.8920454545455  Z M 158.303571428571 45.2556818181818  C 159.434523809524 46.3352272727273  160 47.6136363636363  160 49.0909090909091  L 160 70.9090909090909  C 160 72.3863636363636  159.434523809524 73.6647727272727  158.303571428571 74.7443181818182  C 157.172619047619 75.8238636363636  155.833333333333 76.3636363636364  154.285714285714 76  L 5.71428571428571 76  C 4.16666666666667 76.3636363636364  2.82738095238095 75.8238636363636  1.69642857142857 74.7443181818182  C 0.56547619047619 73.6647727272727  0 72.3863636363636  0 70.9090909090909  L 0 49.0909090909091  C 0 47.6136363636363  0.56547619047619 46.3352272727273  1.69642857142857 45.2556818181818  C 2.82738095238095 44.1761363636364  4.16666666666667 43.6363636363636  5.71428571428571 44  L 154.285714285714 44  C 155.833333333333 43.6363636363636  157.172619047619 44.1761363636364  158.303571428571 45.2556818181818  Z M 158.303571428571 1.61931818181819  C 159.434523809524 2.69886363636362  160 3.97727272727272  160 5.45454545454545  L 160 27.2727272727273  C 160 28.75  159.434523809524 30.0284090909091  158.303571428571 31.1079545454546  C 157.172619047619 32.1875  155.833333333333 32.7272727272727  154.285714285714 33  L 5.71428571428571 33  C 4.16666666666667 32.7272727272727  2.82738095238095 32.1875  1.69642857142857 31.1079545454546  C 0.56547619047619 30.0284090909091  0 28.75  0 27.2727272727273  L 0 5.45454545454545  C 0 3.97727272727272  0.56547619047619 2.69886363636362  1.69642857142857 1.61931818181819  C 2.82738095238095 0.539772727272716  4.16666666666667 0  5.71428571428571 0  L 154.285714285714 0  C 155.833333333333 0  157.172619047619 0.539772727272716  158.303571428571 1.61931818181819  Z " fill-rule="nonzero" fill="#0d64e8" stroke="none" transform="matrix(1 0 0 1 1732 22 )" />
  </g>
</svg>