<?xml version="1.0" encoding="utf-8"?>
<svg version="1.1" xmlns:xlink="http://www.w3.org/1999/xlink" width="50px" height="39px" xmlns="http://www.w3.org/2000/svg">
  <g transform="matrix(1 0 0 1 -25 -31 )">
    <path d="M 12.2488839285714 32.1583806818182  C 12.4162946428571 32.3245738636364  12.5 32.5369318181818  12.5 32.7954545454545  L 12.5 38.1136363636364  C 12.5 38.3721590909091  12.4162946428571 38.5845170454545  12.2488839285714 38.7507102272727  C 12.0814732142857 38.9169034090909  11.8675595238095 39  11.6071428571429 39  L 6.25 39  C 5.98958333333333 39  5.77566964285714 38.9169034090909  5.60825892857143 38.7507102272727  C 5.44084821428571 38.5845170454545  5.35714285714286 38.3721590909091  5.35714285714286 38.1136363636364  L 5.35714285714286 32.7954545454545  C 5.35714285714286 32.5369318181818  5.44084821428571 32.3245738636364  5.60825892857143 32.1583806818182  C 5.77566964285714 31.9921875  5.98958333333333 31.9090909090909  6.25 31.9090909090909  L 11.6071428571429 31.9090909090909  C 11.8675595238095 31.9090909090909  12.0814732142857 31.9921875  12.2488839285714 32.1583806818182  Z M 6.89174107142857 21.5220170454545  C 7.05915178571429 21.6882102272727  7.14285714285714 21.9005681818182  7.14285714285714 22.1590909090909  L 7.14285714285714 27.4772727272727  C 7.14285714285714 27.7357954545455  7.05915178571429 27.9481534090909  6.89174107142857 28.1143465909091  C 6.72433035714286 28.2805397727273  6.51041666666667 28.3636363636364  6.25 28.3636363636364  L 0.892857142857143 28.3636363636364  C 0.632440476190476 28.3636363636364  0.418526785714286 28.2805397727273  0.251116071428571 28.1143465909091  C 0.0837053571428571 27.9481534090909  0 27.7357954545455  0 27.4772727272727  L 0 22.1590909090909  C 0 21.9005681818182  0.0837053571428571 21.6882102272727  0.251116071428571 21.5220170454545  C 0.418526785714286 21.3558238636364  0.632440476190476 21.2727272727273  0.892857142857143 21.2727272727273  L 6.25 21.2727272727273  C 6.51041666666667 21.2727272727273  6.72433035714286 21.3558238636364  6.89174107142857 21.5220170454545  Z M 22.9631696428571 32.1583806818182  C 23.1305803571429 32.3245738636364  23.2142857142857 32.5369318181818  23.2142857142857 32.7954545454545  L 23.2142857142857 38.1136363636364  C 23.2142857142857 38.3721590909091  23.1305803571429 38.5845170454545  22.9631696428571 38.7507102272727  C 22.7957589285714 38.9169034090909  22.5818452380952 39  22.3214285714286 39  L 16.9642857142857 39  C 16.7038690476191 39  16.4899553571429 38.9169034090909  16.3225446428571 38.7507102272727  C 16.1551339285714 38.5845170454545  16.0714285714286 38.3721590909091  16.0714285714286 38.1136363636364  L 16.0714285714286 32.7954545454545  C 16.0714285714286 32.5369318181818  16.1551339285714 32.3245738636364  16.3225446428571 32.1583806818182  C 16.4899553571429 31.9921875  16.7038690476191 31.9090909090909  16.9642857142857 31.9090909090909  L 22.3214285714286 31.9090909090909  C 22.5818452380952 31.9090909090909  22.7957589285714 31.9921875  22.9631696428571 32.1583806818182  Z M 17.6060267857143 21.5220170454545  C 17.7734375 21.6882102272727  17.8571428571429 21.9005681818182  17.8571428571429 22.1590909090909  L 17.8571428571429 27.4772727272727  C 17.8571428571429 27.7357954545455  17.7734375 27.9481534090909  17.6060267857143 28.1143465909091  C 17.4386160714286 28.2805397727273  17.2247023809524 28.3636363636364  16.9642857142857 28.3636363636364  L 11.6071428571429 28.3636363636364  C 11.3467261904762 28.3636363636364  11.1328125 28.2805397727273  10.9654017857143 28.1143465909091  C 10.7979910714286 27.9481534090909  10.7142857142857 27.7357954545455  10.7142857142857 27.4772727272727  L 10.7142857142857 22.1590909090909  C 10.7142857142857 21.9005681818182  10.7979910714286 21.6882102272727  10.9654017857143 21.5220170454545  C 11.1328125 21.3558238636364  11.3467261904762 21.2727272727273  11.6071428571429 21.2727272727273  L 16.9642857142857 21.2727272727273  C 17.2247023809524 21.2727272727273  17.4386160714286 21.3558238636364  17.6060267857143 21.5220170454545  Z M 12.5279017857143 18  L 1.84151785714286 18  C 1.32068452380952 17.7272727272727  0.883556547619048 17.5518465909091  0.530133928571429 17.2009943181818  C 0.17671130952381 16.8501420454545  0 16.4254261363636  0 15.9268465909091  L 0 13  L 14.3415178571429 13  L 14.3415178571429 15.9268465909091  C 14.3415178571429 16.4254261363636  14.164806547619 16.8501420454545  13.8113839285714 17.2009943181818  C 13.4579613095238 17.5518465909091  13.0301339285714 17.7272727272727  12.5279017857143 18  Z M 33.6774553571429 32.1583806818182  C 33.8448660714286 32.3245738636364  33.9285714285714 32.5369318181818  33.9285714285714 32.7954545454545  L 33.9285714285714 38.1136363636364  C 33.9285714285714 38.3721590909091  33.8448660714286 38.5845170454545  33.6774553571429 38.7507102272727  C 33.5100446428571 38.9169034090909  33.296130952381 39  33.0357142857143 39  L 27.6785714285714 39  C 27.4181547619048 39  27.2042410714286 38.9169034090909  27.0368303571429 38.7507102272727  C 26.8694196428571 38.5845170454545  26.7857142857143 38.3721590909091  26.7857142857143 38.1136363636364  L 26.7857142857143 32.7954545454545  C 26.7857142857143 32.5369318181818  26.8694196428571 32.3245738636364  27.0368303571429 32.1583806818182  C 27.2042410714286 31.9921875  27.4181547619048 31.9090909090909  27.6785714285714 31.9090909090909  L 33.0357142857143 31.9090909090909  C 33.296130952381 31.9090909090909  33.5100446428571 31.9921875  33.6774553571429 32.1583806818182  Z M 28.3203125 21.5220170454545  C 28.4877232142857 21.6882102272727  28.5714285714286 21.9005681818182  28.5714285714286 22.1590909090909  L 28.5714285714286 27.4772727272727  C 28.5714285714286 27.7357954545455  28.4877232142857 27.9481534090909  28.3203125 28.1143465909091  C 28.1529017857143 28.2805397727273  27.9389880952381 28.3636363636364  27.6785714285714 28.3636363636364  L 22.3214285714286 28.3636363636364  C 22.0610119047619 28.3636363636364  21.8470982142857 28.2805397727273  21.6796875 28.1143465909091  C 21.5122767857143 27.9481534090909  21.4285714285714 27.7357954545455  21.4285714285714 27.4772727272727  L 21.4285714285714 22.1590909090909  C 21.4285714285714 21.9005681818182  21.5122767857143 21.6882102272727  21.6796875 21.5220170454545  C 21.8470982142857 21.3558238636364  22.0610119047619 21.2727272727273  22.3214285714286 21.2727272727273  L 27.6785714285714 21.2727272727273  C 27.9389880952381 21.2727272727273  28.1529017857143 21.3558238636364  28.3203125 21.5220170454545  Z M 44.3917410714286 32.1583806818182  C 44.5591517857143 32.3245738636364  44.6428571428571 32.5369318181818  44.6428571428571 32.7954545454545  L 44.6428571428571 38.1136363636364  C 44.6428571428571 38.3721590909091  44.5591517857143 38.5845170454545  44.3917410714286 38.7507102272727  C 44.2243303571429 38.9169034090909  44.0104166666667 39  43.75 39  L 38.3928571428571 39  C 38.1324404761905 39  37.9185267857143 38.9169034090909  37.7511160714286 38.7507102272727  C 37.5837053571429 38.5845170454545  37.5 38.3721590909091  37.5 38.1136363636364  L 37.5 32.7954545454545  C 37.5 32.5369318181818  37.5837053571429 32.3245738636364  37.7511160714286 32.1583806818182  C 37.9185267857143 31.9921875  38.1324404761905 31.9090909090909  38.3928571428571 31.9090909090909  L 43.75 31.9090909090909  C 44.0104166666667 31.9090909090909  44.2243303571429 31.9921875  44.3917410714286 32.1583806818182  Z M 39.0345982142857 21.5220170454545  C 39.2020089285714 21.6882102272727  39.2857142857143 21.9005681818182  39.2857142857143 22.1590909090909  L 39.2857142857143 27.4772727272727  C 39.2857142857143 27.7357954545455  39.2020089285714 27.9481534090909  39.0345982142857 28.1143465909091  C 38.8671875 28.2805397727273  38.6532738095238 28.3636363636364  38.3928571428571 28.3636363636364  L 33.0357142857143 28.3636363636364  C 32.7752976190476 28.3636363636364  32.5613839285714 28.2805397727273  32.3939732142857 28.1143465909091  C 32.2265625 27.9481534090909  32.1428571428571 27.7357954545455  32.1428571428571 27.4772727272727  L 32.1428571428571 22.1590909090909  C 32.1428571428571 21.9005681818182  32.2265625 21.6882102272727  32.3939732142857 21.5220170454545  C 32.5613839285714 21.3558238636364  32.7752976190476 21.2727272727273  33.0357142857143 21.2727272727273  L 38.3928571428571 21.2727272727273  C 38.6532738095238 21.2727272727273  38.8671875 21.3558238636364  39.0345982142857 21.5220170454545  Z M 49.7628348214286 9.66690340909091  C 49.9209449404762 10.1470170454545  50 10.5440340909091  50 10.8579545454545  L 50 11.2180397727273  L 35.6584821428571 11.2180397727273  L 35.6584821428571 10.9410511363636  C 35.6584821428571 9.02059659090909  32.1056547619048 8.07883522727272  25 8.11576704545455  C 17.8943452380952 8.13423295454545  14.3415178571429 9.07599431818181  14.3415178571429 10.9410511363636  L 14.3415178571429 11.2180397727273  L 0 11.2180397727273  L 0 10.8579545454545  C 0 10.5440340909091  0.0790550595238095 10.1470170454545  0.237165178571429 9.66690340909091  C 0.395275297619048 9.18678977272727  0.711495535714286 8.59588068181818  1.18582589285714 7.89417613636364  C 1.66015625 7.19247159090909  2.26934523809524 6.49538352272727  3.01339285714286 5.80291193181818  C 3.75744047619048 5.11044034090909  4.78515625 4.40873579545454  6.09654017857143 3.69779829545455  C 7.40792410714286 2.98686079545454  8.8960193452381 2.36363636363636  10.5608258928571 1.828125  C 12.2256324404762 1.29261363636363  14.3089657738095 0.854048295454544  16.8108258928571 0.512428977272729  C 19.3126860119048 0.170809659090905  22.0424107142857 0  25 0  C 27.9575892857143 0  30.6826636904762 0.170809659090905  33.1752232142857 0.512428977272729  C 35.6677827380952 0.854048295454544  37.7511160714286 1.29261363636363  39.4252232142857 1.828125  C 41.0993303571429 2.36363636363636  42.5920758928571 2.98686079545454  43.9034598214286 3.69779829545455  C 45.21484375 4.40873579545454  46.2425595238095 5.11044034090909  46.9866071428571 5.80291193181818  C 47.7306547619048 6.49538352272727  48.33984375 7.19247159090909  48.8141741071429 7.89417613636364  C 49.2885044642857 8.59588068181818  49.604724702381 9.18678977272727  49.7628348214286 9.66690340909091  Z M 49.7488839285714 21.5220170454545  C 49.9162946428571 21.6882102272727  50 21.9005681818182  50 22.1590909090909  L 50 27.4772727272727  C 50 27.7357954545455  49.9162946428571 27.9481534090909  49.7488839285714 28.1143465909091  C 49.5814732142857 28.2805397727273  49.3675595238095 28.3636363636364  49.1071428571429 28.3636363636364  L 43.75 28.3636363636364  C 43.4895833333333 28.3636363636364  43.2756696428572 28.2805397727273  43.1082589285714 28.1143465909091  C 42.9408482142857 27.9481534090909  42.8571428571429 27.7357954545455  42.8571428571429 27.4772727272727  L 42.8571428571429 22.1590909090909  C 42.8571428571429 21.9005681818182  42.9408482142857 21.6882102272727  43.1082589285714 21.5220170454545  C 43.2756696428572 21.3558238636364  43.4895833333333 21.2727272727273  43.75 21.2727272727273  L 49.1071428571429 21.2727272727273  C 49.3675595238095 21.2727272727273  49.5814732142857 21.3558238636364  49.7488839285714 21.5220170454545  Z M 35.6584821428571 13  L 50 13  L 50 15.9268465909091  C 50 16.4254261363636  49.8232886904762 16.8501420454545  49.4698660714286 17.2009943181818  C 49.116443452381 17.5518465909091  48.6886160714286 17.7272727272727  48.1863839285714 18  L 37.4720982142857 18  C 36.9698660714286 17.7272727272727  36.5420386904762 17.5518465909091  36.1886160714286 17.2009943181818  C 35.835193452381 16.8501420454545  35.6584821428571 16.4254261363636  35.6584821428571 15.9268465909091  L 35.6584821428571 13  Z " fill-rule="nonzero" fill="#0d64e8" stroke="none" transform="matrix(1 0 0 1 25 31 )" />
  </g>
</svg>