<?xml version="1.0" encoding="utf-8"?>
<svg version="1.1" xmlns:xlink="http://www.w3.org/1999/xlink" width="50px" height="46px" xmlns="http://www.w3.org/2000/svg">
  <g transform="matrix(1 0 0 1 -25 -27 )">
    <path d="M 21.3802083333333 27.7149346961953  C 22.6822916666667 26.4088586030664  23.3333333333333 24.8328601173576  23.3333333333333 22.9869392390687  C 23.3333333333333 21.1410183607799  22.6822916666667 19.565019875071  21.3802083333333 18.2589437819421  C 20.078125 16.9528676888132  18.5069444444444 16.2998296422487  16.6666666666667 16.2998296422487  C 14.8263888888889 16.2998296422487  13.2552083333333 16.9528676888132  11.953125 18.2589437819421  C 10.6510416666667 19.565019875071  10 21.1410183607799  10 22.9869392390687  C 10 24.8328601173576  10.6510416666667 26.4088586030664  11.953125 27.7149346961953  C 13.2552083333333 29.0210107893242  14.8263888888889 29.6740488358887  16.6666666666667 29.6740488358887  C 18.5069444444444 29.6740488358887  20.078125 29.0210107893242  21.3802083333333 27.7149346961953  Z M 42.3567708333333 38.725156161272  C 43.0078125 38.0721181147076  43.3333333333333 37.2841188718531  43.3333333333333 36.3611584327087  C 43.3333333333333 35.4556123414726  43.0034722222222 34.6719666855953  42.34375 34.0102214650767  C 41.6840277777778 33.348476244558  40.9027777777778 33.0176036342987  40 33.0176036342987  C 39.0972222222222 33.0176036342987  38.3159722222222 33.348476244558  37.65625 34.0102214650767  C 36.9965277777778 34.6719666855953  36.6666666666667 35.4556123414726  36.6666666666667 36.3611584327087  C 36.6666666666667 37.2841188718531  36.9921875 38.0721181147076  37.6432291666667 38.725156161272  C 38.2942708333333 39.3781942078365  39.0798611111111 39.7047132311187  40 39.7047132311187  C 40.9201388888889 39.7047132311187  41.7057291666667 39.3781942078365  42.3567708333333 38.725156161272  Z M 42.3567708333333 11.9767177739921  C 43.0078125 11.3236797274276  43.3333333333333 10.5356804845732  43.3333333333333 9.61272004542874  C 43.3333333333333 8.70717395419269  43.0034722222222 7.92352829831535  42.34375 7.26178307779671  C 41.6840277777778 6.60003785727806  40.9027777777778 6.26916524701874  40 6.26916524701874  C 39.0972222222222 6.26916524701874  38.3159722222222 6.60003785727806  37.65625 7.26178307779671  C 36.9965277777778 7.92352829831535  36.6666666666667 8.70717395419269  36.6666666666667 9.61272004542874  C 36.6666666666667 10.5356804845732  36.9921875 11.3236797274276  37.6432291666667 11.9767177739921  C 38.2942708333333 12.6297558205565  39.0798611111111 12.9562748438387  40 12.9562748438387  C 40.9201388888889 12.9562748438387  41.7057291666667 12.6297558205565  42.3567708333333 11.9767177739921  Z M 33.1510416666667 20.1005110732538  C 33.2725694444444 20.2485330304751  33.3333333333333 20.4183229225819  33.3333333333333 20.6098807495741  L 33.3333333333333 25.442362294151  C 33.3333333333333 25.6165057732349  33.2725694444444 25.7862956653417  33.1510416666667 25.9517319704713  C 33.0295138888889 26.117168275601  32.890625 26.20859360212  32.734375 26.2260079500284  L 28.6979166666667 26.8529244747303  C 28.5069444444445 27.4624266515238  28.2291666666667 28.1241718720424  27.8645833333333 28.8381601362862  C 28.4548611111111 29.6740488358887  29.2361111111111 30.6753738406209  30.2083333333333 31.8421351504827  C 30.3298611111111 32.0336929774749  30.390625 32.2078364565588  30.390625 32.3645655877342  C 30.390625 32.5735377626349  30.3298611111111 32.7389740677645  30.2083333333333 32.8608745031232  C 29.8090277777778 33.3833049403748  29.0928819444445 34.162597009275  28.0598958333333 35.198750709824  C 27.0269097222222 36.2349044103729  26.3454861111111 36.7529812606474  26.015625 36.7529812606474  C 25.8246527777778 36.7529812606474  25.6423611111111 36.692031042968  25.46875 36.5701306076093  L 22.4739583333333 34.2191936399773  C 21.8315972222222 34.5500662502366  21.1631944444444 34.8199886428166  20.46875 35.0289608177172  C 20.2777777777778 36.9097103918228  20.078125 38.2593223547227  19.8697916666667 39.0777967064168  C 19.7482638888889 39.4957410562181  19.4878472222222 39.7047132311187  19.0885416666667 39.7047132311187  L 14.2447916666667 39.7047132311187  C 14.0538194444444 39.7047132311187  13.8802083333333 39.6394094264622  13.7239583333333 39.5088018171493  C 13.5677083333333 39.3781942078365  13.4809027777778 39.2258186636381  13.4635416666667 39.0516751845542  L 12.8645833333333 35.0550823395798  C 12.2743055555556 34.8809388604959  11.6232638888889 34.611016467916  10.9114583333333 34.2453151618399  L 7.83854166666667 36.5701306076093  C 7.71701388888889 36.692031042968  7.54340277777778 36.7529812606474  7.31770833333333 36.7529812606474  C 7.12673611111111 36.7529812606474  6.94444444444444 36.6833238690138  6.77083333333333 36.5440090857467  C 4.27083333333333 34.2279008139315  3.02083333333333 32.8347529812607  3.02083333333333 32.3645655877342  C 3.02083333333333 32.2078364565588  3.08159722222222 32.0424001514291  3.203125 31.8682566723453  C 3.37673611111111 31.6244558016279  3.73263888888889 31.1629755820556  4.27083333333333 30.4838160136286  C 4.80902777777778 29.8046564452016  5.21701388888889 29.2735188339958  5.49479166666667 28.8904031800114  C 5.09548611111111 28.1241718720424  4.79166666666667 27.4101836077986  4.58333333333333 26.74843838728  L 0.625 26.1215218625781  C 0.451388888888889 26.1041075146697  0.303819444444444 26.0213893621049  0.182291666666667 25.8733674048836  C 0.0607638888888889 25.7253454476623  0 25.5555555555556  0 25.3639977285633  L 0 20.5315161839864  C 0 20.3573727049025  0.0607638888888889 20.1875828127958  0.182291666666667 20.0221465076661  C 0.303819444444444 19.8567102025364  0.442708333333333 19.7652848760174  0.598958333333333 19.747870528109  L 4.63541666666667 19.1209540034072  C 4.82638888888889 18.5114518266137  5.10416666666667 17.849706606095  5.46875 17.1357183418512  C 4.87847222222222 16.2998296422487  4.09722222222222 15.2985046375166  3.125 14.1317433276547  C 3.00347222222222 13.9401855006625  2.94270833333333 13.7660420215786  2.94270833333333 13.6093128904032  C 2.94270833333333 13.4003407155026  3.00347222222222 13.2261972364187  3.125 13.0868824531516  C 3.50694444444445 12.5644520159001  4.21875 11.7895135339769  5.26041666666667 10.7620670073822  C 6.30208333333333 9.73462048078743  6.98784722222222 9.22089721749006  7.31770833333333 9.22089721749006  C 7.50868055555556 9.22089721749006  7.69097222222222 9.28184743516941  7.86458333333333 9.40374787052811  L 10.859375 11.7546848381601  C 11.4496527777778 11.4412265758092  12.1180555555556 11.162597009275  12.8645833333333 10.9187961385576  C 13.0555555555556 9.03804656445202  13.2552083333333 7.69714177550633  13.4635416666667 6.89608177172061  C 13.5850694444444 6.47813742191936  13.8454861111111 6.26916524701874  14.2447916666667 6.26916524701874  L 19.0885416666667 6.26916524701874  C 19.2795138888889 6.26916524701874  19.453125 6.33446905167519  19.609375 6.46507666098808  C 19.765625 6.59568427030096  19.8524305555556 6.74805981449933  19.8697916666667 6.92220329358319  L 20.46875 10.9187961385576  C 21.0590277777778 11.0929396176415  21.7100694444444 11.3628620102215  22.421875 11.7285633162976  L 25.4947916666667 9.40374787052811  C 25.6336805555556 9.28184743516941  25.8072916666667 9.22089721749006  26.015625 9.22089721749006  C 26.2065972222222 9.22089721749006  26.3888888888889 9.2905546091236  26.5625 9.42986939239069  C 29.0625 11.7459776642059  30.3125 13.1391254968768  30.3125 13.6093128904032  C 30.3125 13.7486276736703  30.2517361111111 13.9140639787999  30.1302083333333 14.1056218057922  C 29.921875 14.3842513723263  29.5572916666667 14.8544387658527  29.0364583333333 15.5161839863714  C 28.515625 16.17792920689  28.125 16.7003596441416  27.8645833333333 17.0834752981261  C 28.2638888888889 17.9193639977286  28.5590277777778 18.6333522619724  28.75 19.2254400908575  L 32.7083333333333 19.8262350936968  C 32.8819444444444 19.8610637895135  33.0295138888889 19.9524891160326  33.1510416666667 20.1005110732538  Z M 46.1197916666667 33.7228847245883  C 48.7065972222222 33.9840999432141  50 34.2540223357941  50 34.5326519023282  L 50 38.1896649630892  C 50 38.4682945296233  48.7065972222222 38.7382169222033  46.1197916666667 38.9994321408291  C 45.9114583333333 39.4696195343555  45.6510416666667 39.9223925799735  45.3385416666667 40.3577512776831  C 46.2239583333333 42.3255725913307  46.6666666666667 43.5271625970093  46.6666666666667 43.9625212947189  C 46.6666666666667 44.0321786863525  46.6319444444444 44.0931289040318  46.5625 44.145371947757  C 44.4444444444445 45.3817906492523  43.3680555555556 46  43.3333333333333 46  C 43.1944444444445 46  42.7951388888889 45.5907628241529  42.1354166666667 44.7722884724588  C 41.4756944444444 43.9538141207647  41.0243055555556 43.3617262918796  40.78125 42.9960249858035  C 40.4340277777778 43.0308536816203  40.1736111111111 43.0482680295287  40 43.0482680295287  C 39.8263888888889 43.0482680295287  39.5659722222222 43.0308536816203  39.21875 42.9960249858035  C 38.9756944444445 43.3617262918796  38.5243055555556 43.9538141207647  37.8645833333333 44.7722884724588  C 37.2048611111111 45.5907628241529  36.8055555555556 46  36.6666666666667 46  C 36.6319444444445 46  35.5555555555556 45.3817906492523  33.4375 44.145371947757  C 33.3680555555556 44.0931289040318  33.3333333333333 44.0321786863525  33.3333333333333 43.9625212947189  C 33.3333333333333 43.5271625970093  33.7760416666667 42.3255725913307  34.6614583333333 40.3577512776831  C 34.3489583333333 39.9223925799735  34.0885416666667 39.4696195343555  33.8802083333333 38.9994321408291  C 31.2934027777778 38.7382169222033  30 38.4682945296233  30 38.1896649630892  L 30 34.5326519023282  C 30 34.2540223357941  31.2934027777778 33.9840999432141  33.8802083333333 33.7228847245883  C 34.1059027777778 33.2178686352451  34.3663194444445 32.7650955896271  34.6614583333333 32.3645655877342  C 33.7760416666667 30.3967442740867  33.3333333333333 29.1951542684081  33.3333333333333 28.7597955706985  C 33.3333333333333 28.6901381790649  33.3680555555556 28.6291879613856  33.4375 28.5769449176604  C 33.5069444444445 28.5421162218436  33.8107638888889 28.3679727427598  34.3489583333333 28.0545144804089  C 34.8871527777778 27.7410562180579  35.3993055555556 27.4450123036154  35.8854166666667 27.1663827370812  C 36.3715277777778 26.887753170547  36.6319444444445 26.74843838728  36.6666666666667 26.74843838728  C 36.8055555555556 26.74843838728  37.2048611111111 27.1533219761499  37.8645833333333 27.9630891538898  C 38.5243055555556 28.7728563316298  38.9756944444445 29.3605905735378  39.21875 29.7262918796139  C 39.5659722222222 29.6914631837971  39.8263888888889 29.6740488358887  40 29.6740488358887  C 40.1736111111111 29.6740488358887  40.4340277777778 29.6914631837971  40.78125 29.7262918796139  C 41.6666666666667 28.4898731781185  42.4652777777778 27.5146696952489  43.1770833333333 26.8006814310051  L 43.3333333333333 26.74843838728  C 43.4027777777778 26.74843838728  44.4791666666667 27.3579405640734  46.5625 28.5769449176604  C 46.6319444444444 28.6291879613856  46.6666666666667 28.6901381790649  46.6666666666667 28.7597955706985  C 46.6666666666667 29.1951542684081  46.2239583333333 30.3967442740867  45.3385416666667 32.3645655877342  C 45.6336805555556 32.7650955896271  45.8940972222222 33.2178686352451  46.1197916666667 33.7228847245883  Z M 46.1197916666667 6.97444633730835  C 48.7065972222222 7.23566155593413  50 7.5055839485141  50 7.78421351504827  L 50 11.4412265758092  C 50 11.7198561423434  48.7065972222222 11.9897785349233  46.1197916666667 12.2509937535491  C 45.9114583333333 12.7211811470755  45.6510416666667 13.1739541926935  45.3385416666667 13.6093128904032  C 46.2239583333333 15.5771342040507  46.6666666666667 16.7787242097293  46.6666666666667 17.214082907439  C 46.6666666666667 17.2837402990725  46.6319444444444 17.3446905167518  46.5625 17.396933560477  C 44.4444444444445 18.6333522619724  43.3680555555556 19.25156161272  43.3333333333333 19.25156161272  C 43.1944444444445 19.25156161272  42.7951388888889 18.842324436873  42.1354166666667 18.0238500851789  C 41.4756944444444 17.2053757334848  41.0243055555556 16.6132879045997  40.78125 16.2475865985236  C 40.4340277777778 16.2824152943403  40.1736111111111 16.2998296422487  40 16.2998296422487  C 39.8263888888889 16.2998296422487  39.5659722222222 16.2824152943403  39.21875 16.2475865985236  C 38.9756944444445 16.6132879045997  38.5243055555556 17.2053757334848  37.8645833333333 18.0238500851789  C 37.2048611111111 18.842324436873  36.8055555555556 19.25156161272  36.6666666666667 19.25156161272  C 36.6319444444445 19.25156161272  35.5555555555556 18.6333522619724  33.4375 17.396933560477  C 33.3680555555556 17.3446905167518  33.3333333333333 17.2837402990725  33.3333333333333 17.214082907439  C 33.3333333333333 16.7787242097293  33.7760416666667 15.5771342040507  34.6614583333333 13.6093128904032  C 34.3489583333333 13.1739541926935  34.0885416666667 12.7211811470755  33.8802083333333 12.2509937535491  C 31.2934027777778 11.9897785349233  30 11.7198561423434  30 11.4412265758092  L 30 7.78421351504827  C 30 7.5055839485141  31.2934027777778 7.23566155593413  33.8802083333333 6.97444633730835  C 34.1059027777778 6.46943024796517  34.3663194444445 6.01665720234715  34.6614583333333 5.61612720045429  C 33.7760416666667 3.64830588680673  33.3333333333333 2.44671588112814  33.3333333333333 2.01135718341851  C 33.3333333333333 1.94169979178497  33.3680555555556 1.88074957410562  33.4375 1.82850653038047  C 33.5069444444445 1.79367783456369  33.8107638888889 1.61953435547984  34.3489583333333 1.30607609312891  C 34.8871527777778 0.992617830777968  35.3993055555556 0.696573916335409  35.8854166666667 0.41794434980125  C 36.3715277777778 0.13931478326708  36.6319444444445 0  36.6666666666667 0  C 36.8055555555556 0  37.2048611111111 0.404883588869958  37.8645833333333 1.21465076660988  C 38.5243055555556 2.0244179443498  38.9756944444445 2.61215218625781  39.21875 2.9778534923339  C 39.5659722222222 2.94302479651713  39.8263888888889 2.92561044860875  40 2.92561044860875  C 40.1736111111111 2.92561044860875  40.4340277777778 2.94302479651713  40.78125 2.9778534923339  C 41.6666666666667 1.74143479083853  42.4652777777778 0.766231307968954  43.1770833333333 0.0522430437251562  L 43.3333333333333 0  C 43.4027777777778 0  44.4791666666667 0.609502176793486  46.5625 1.82850653038047  C 46.6319444444444 1.88074957410562  46.6666666666667 1.94169979178497  46.6666666666667 2.01135718341851  C 46.6666666666667 2.44671588112814  46.2239583333333 3.64830588680673  45.3385416666667 5.61612720045429  C 45.6336805555556 6.01665720234715  45.8940972222222 6.46943024796517  46.1197916666667 6.97444633730835  Z " fill-rule="nonzero" fill="#0d64e8" stroke="none" transform="matrix(1 0 0 1 25 27 )" />
  </g>
</svg>