<?xml version="1.0" encoding="utf-8"?>
<svg version="1.1" xmlns:xlink="http://www.w3.org/1999/xlink" width="50px" height="46px" xmlns="http://www.w3.org/2000/svg">
  <g transform="matrix(1 0 0 1 -25 -27 )">
    <path d="M 0 37  L 11.4583333333333 37  L 11.4583333333333 41  L 0 41  L 0 37  Z M 14.5833333333333 33.4545454545455  L 22.9166666666667 33.4545454545455  C 23.4809027777778 33.4545454545455  23.9691840277778 33.6614583333333  24.3815104166667 34.0752840909091  C 24.7938368055556 34.4891098484849  25 34.9791666666667  25 35.5454545454545  L 25 43.9090909090909  C 25 44.4753787878788  24.7938368055556 44.9654356060606  24.3815104166667 45.3792613636364  C 23.9691840277778 45.7930871212121  23.4809027777778 46  22.9166666666667 46  L 14.5833333333333 46  C 14.0190972222222 46  13.5308159722222 45.7930871212121  13.1184895833333 45.3792613636364  C 12.7061631944444 44.9654356060606  12.5 44.4753787878788  12.5 43.9090909090909  L 12.5 35.5454545454545  C 12.5 34.9791666666667  12.7061631944444 34.4891098484849  13.1184895833333 34.0752840909091  C 13.5308159722222 33.6614583333333  14.0190972222222 33.4545454545455  14.5833333333333 33.4545454545455  Z M 0 21  L 28.125 21  L 28.125 25  L 0 25  L 0 21  Z M 0 4.18181818181818  L 7.29166666666667 4.18181818181818  L 7.29166666666667 8.36363636363636  L 0 8.36363636363636  L 0 4.18181818181818  Z M 26.0416666666667 37  L 50 37  L 50 41  L 26.0416666666667 41  L 26.0416666666667 37  Z M 10.4166666666667 0  L 18.75 0  C 19.3142361111111 0  19.8025173611111 0.206912878787874  20.21484375 0.620738636363639  C 20.6271701388889 1.03456439393939  20.8333333333333 1.52462121212121  20.8333333333333 2.09090909090909  L 20.8333333333333 10.4545454545455  C 20.8333333333333 11.0208333333333  20.6271701388889 11.5108901515151  20.21484375 11.9247159090909  C 19.8025173611111 12.3385416666667  19.3142361111111 12.5454545454545  18.75 12.5454545454545  L 10.4166666666667 12.5454545454545  C 9.85243055555556 12.5454545454545  9.36414930555556 12.3385416666667  8.95182291666667 11.9247159090909  C 8.53949652777778 11.5108901515151  8.33333333333333 11.0208333333333  8.33333333333333 10.4545454545455  L 8.33333333333333 2.09090909090909  C 8.33333333333333 1.52462121212121  8.53949652777778 1.03456439393939  8.95182291666667 0.620738636363639  C 9.36414930555556 0.206912878787874  9.85243055555556 0  10.4166666666667 0  Z M 31.25 16.7272727272727  L 39.5833333333333 16.7272727272727  C 40.1475694444445 16.7272727272727  40.6358506944445 16.9341856060606  41.0481770833333 17.3480113636364  C 41.4605034722222 17.7618371212121  41.6666666666667 18.2518939393939  41.6666666666667 18.8181818181818  L 41.6666666666667 27.1818181818182  C 41.6666666666667 27.7481060606061  41.4605034722222 28.2381628787879  41.0481770833333 28.6519886363636  C 40.6358506944445 29.0658143939394  40.1475694444445 29.2727272727273  39.5833333333333 29.2727272727273  L 31.25 29.2727272727273  C 30.6857638888889 29.2727272727273  30.1974826388889 29.0658143939394  29.78515625 28.6519886363636  C 29.3728298611111 28.2381628787879  29.1666666666667 27.7481060606061  29.1666666666667 27.1818181818182  L 29.1666666666667 18.8181818181818  C 29.1666666666667 18.2518939393939  29.3728298611111 17.7618371212121  29.78515625 17.3480113636364  C 30.1974826388889 16.9341856060606  30.6857638888889 16.7272727272727  31.25 16.7272727272727  Z M 42.7083333333333 20.9090909090909  L 50 20.9090909090909  L 50 25.0909090909091  L 42.7083333333333 25.0909090909091  L 42.7083333333333 20.9090909090909  Z M 21.875 5  L 50 5  L 50 9  L 21.875 9  L 21.875 5  Z " fill-rule="nonzero" fill="#0d64e8" stroke="none" transform="matrix(1 0 0 1 25 27 )" />
  </g>
</svg>