<?xml version="1.0" encoding="utf-8"?>
<svg version="1.1" xmlns:xlink="http://www.w3.org/1999/xlink" width="50px" height="50px" xmlns="http://www.w3.org/2000/svg">
  <g transform="matrix(1 0 0 1 -25 -25 )">
    <path d="M 1.78571428571429 0  L 12.5 0  C 12.983630952381 0  13.4021577380952 0.176711309523814  13.7555803571429 0.53013392857143  C 14.1090029761905 0.883556547619041  14.2857142857143 1.30208333333333  15 1.78571428571428  L 15 26.6462053571429  L 29.2410714285714 14.6763392857143  C 29.5572916666667 14.4159226190476  29.9293154761905 14.2857142857143  30.3571428571429 14.2857142857143  C 30.8407738095238 14.2857142857143  31.2593005952381 14.4624255952381  31.6127232142857 14.8158482142857  C 31.9661458333333 15.1692708333333  32.1428571428571 15.5877976190476  32 16.0714285714286  L 32 26.6462053571429  L 47.0982142857143 14.6763392857143  C 47.4144345238095 14.4159226190476  47.7864583333333 14.2857142857143  48.2142857142857 14.2857142857143  C 48.6979166666667 14.2857142857143  49.116443452381 14.4624255952381  49.4698660714286 14.8158482142857  C 49.8232886904762 15.1692708333333  50 15.5877976190476  50 16.0714285714286  L 50 48.2142857142857  C 50 48.6979166666667  49.8232886904762 49.1164434523809  49.4698660714286 49.4698660714286  C 49.116443452381 49.8232886904762  48.6979166666667 50  48.2142857142857 50  L 1.78571428571429 50  C 1.30208333333333 50  0.883556547619048 49.8232886904762  0.530133928571429 49.4698660714286  C 0.17671130952381 49.1164434523809  0 48.6979166666667  0 48.2142857142857  L 0 1.78571428571428  C 0 1.30208333333333  0.17671130952381 0.883556547619041  0.530133928571429 0.53013392857143  C 0.883556547619048 0.176711309523814  1.30208333333333 0  1.78571428571429 0  Z " fill-rule="nonzero" fill="#0d64e8" stroke="none" transform="matrix(1 0 0 1 25 25 )" />
  </g>
</svg>