<?xml version="1.0" encoding="utf-8"?>
<svg version="1.1" xmlns:xlink="http://www.w3.org/1999/xlink" width="50px" height="47px" xmlns="http://www.w3.org/2000/svg">
  <g transform="matrix(1 0 0 1 -25 -27 )">
    <path d="M 48.6328125 28.5527989821883  C 49.5442708333333 29.7287955894826  50 31.1539440203562  50 32.8282442748092  C 50 34.4427480916031  49.5542868589744 35.7881679389313  48.6628605769231 36.8645038167939  C 47.7714342948718 37.9408396946565  46.5344551282051 38.4790076335878  44.9519230769231 38.4790076335878  C 44.130608974359 38.4790076335878  43.3543669871795 38.3046013570823  42.6231971153846 37.9557888040712  C 41.8920272435897 37.6069762510602  41.3010817307692 37.2282654792197  40.8503605769231 36.8196564885496  C 40.3996394230769 36.4110474978796  39.833733974359 36.032336726039  39.1526442307692 35.683524173028  C 38.4715544871795 35.334711620017  37.7604166666667 35.1603053435115  37.0192307692308 35.1603053435115  C 34.8157051282051 35.1603053435115  33.7139423076923 36.3960983884648  33.7139423076923 38.8676844783715  C 33.7139423076923 39.6450381679389  33.8741987179487 40.7911365564037  34.1947115384615 42.3059796437659  C 34.5152243589744 43.8208227311281  34.6654647435897 44.9669211195929  34.6454326923077 45.7442748091603  L 34.6454326923077 45.8937659033079  C 34.2047275641026 45.8937659033079  33.8741987179487 45.9037319762511  33.6538461538462 45.9236641221374  C 32.9727564102564 45.9834605597964  31.9961939102564 46.0980703986429  30.7241586538462 46.2674936386768  C 29.4521233974359 46.4369168787108  28.2952724358974 46.5714588634436  27.2536057692308 46.6711195928753  C 26.2119391025641 46.770780322307  25.2303685897436 46.8206106870229  24.3088942307692 46.8206106870229  C 23.0869391025641 46.8206106870229  22.0552884615385 46.5565097540288  21.2139423076923 46.0283078880407  C 20.3725961538462 45.5001060220526  19.9519230769231 44.6679389312977  19.9519230769231 43.5318066157761  C 19.9519230769231 42.7943172179813  20.127203525641 42.0867260390161  20.4777644230769 41.4090330788804  C 20.8283253205128 40.7313401187447  21.2089342948718 40.1682569974555  21.6195913461538 39.7197837150127  C 22.0302483974359 39.27131043257  22.4108573717949 38.6833121289228  22.7614182692308 37.9557888040712  C 23.1119791666667 37.2282654792197  23.2872596153846 36.4558948261238  23.2872596153846 35.6386768447837  C 23.2872596153846 34.0640373197625  22.7463942307692 32.8332273112807  21.6646634615385 31.9462468193384  C 20.5829326923077 31.0592663273961  19.2307692307692 30.6157760814249  17.6081730769231 30.6157760814249  C 15.9254807692308 30.6157760814249  14.4931891025641 31.0692324003393  13.3112980769231 31.9761450381679  C 12.129407051282 32.8830576759966  11.5384615384615 34.1537319762511  11.5384615384615 35.7881679389313  C 11.5384615384615 36.6452502120441  11.6887019230769 37.4724342663274  11.9891826923077 38.2697201017812  C 12.2896634615385 39.0670059372349  12.6252003205128 39.7098176420695  12.9957932692308 40.198155216285  C 13.3663862179487 40.6864927905004  13.7019230769231 41.2146946564885  14.0024038461538 41.7827608142494  C 14.3028846153846 42.3508269720102  14.453125 42.8541136556404  14.453125 43.29262086514  C 14.453125 44.1895674300254  13.9923878205128 45.0765479219678  13.0709134615385 45.9535623409669  C 12.3297275641026 46.651187446989  11.1578525641026 47  9.55528846153846 47  C 7.65224358974359 47  5.19831730769231 46.7608142493639  2.19350961538462 46.2824427480916  C 2.01322115384615 46.2425784563189  1.73778044871795 46.2027141645462  1.3671875 46.1628498727735  C 0.996594551282051 46.1229855810008  0.721153846153846 46.0831212892282  0.540865384615385 46.0432569974555  L 0.150240384615385 45.9834605597964  C 0.130208333333333 45.9834605597964  0.100160256410256 45.9734944868533  0.0600961538461538 45.9535623409669  C 0.0200320512820513 45.9535623409669  0 45.9435962680237  0 45.9236641221374  L 0 15.3078880407125  C 0.0400641025641026 15.3278201865988  0.215344551282051 15.3627014418999  0.525841346153846 15.4125318066158  C 0.836338141025641 15.4623621713316  1.17688301282051 15.5121925360475  1.54747596153846 15.5620229007634  C 1.91806891025641 15.6118532654792  2.13341346153846 15.6467345207803  2.19350961538462 15.6666666666667  C 5.19831730769231 16.1450381679389  7.65224358974359 16.3842239185751  9.55528846153846 16.3842239185751  C 11.1578525641026 16.3842239185751  12.3297275641026 16.035411365564  13.0709134615385 15.337786259542  C 13.9923878205128 14.4607718405428  14.453125 13.5737913486005  14.453125 12.676844783715  C 14.453125 12.2383375742154  14.3028846153846 11.7350508905852  14.0024038461538 11.1669847328244  C 13.7019230769231 10.5989185750636  13.3663862179487 10.0707167090755  12.9957932692308 9.58237913486005  C 12.6252003205128 9.09404156064461  12.2896634615385 8.45122985581001  11.9891826923077 7.65394402035624  C 11.6887019230769 6.85665818490246  11.5384615384615 6.02947413061917  11.5384615384615 5.17239185750636  C 11.5384615384615 3.53795589482612  12.129407051282 2.26728159457167  13.3112980769231 1.360368956743  C 14.4931891025641 0.453456318914338  15.9354967948718 0  17.6382211538462 0  C 19.2407852564103 0  20.5829326923077 0.443490245971168  21.6646634615385 1.33047073791349  C 22.7463942307692 2.21745122985581  23.2872596153846 3.44826123833757  23.2872596153846 5.02290076335878  C 23.2872596153846 5.84011874469889  23.1119791666667 6.61248939779474  22.7614182692308 7.34001272264631  C 22.4108573717949 8.06753604749788  22.0302483974359 8.65553435114504  21.6195913461538 9.10400763358779  C 21.2089342948718 9.55248091603053  20.8283253205128 10.1155640373198  20.4777644230769 10.7932569974555  C 20.127203525641 11.4709499575912  19.9519230769231 12.1785411365564  19.9519230769231 12.9160305343511  C 19.9519230769231 14.0521628498728  20.3725961538462 14.8843299406276  21.2139423076923 15.4125318066158  C 22.0552884615385 15.9407336726039  23.0869391025641 16.204834605598  24.3088942307692 16.204834605598  C 25.5909455128205 16.204834605598  27.3938301282051 16.0553435114504  29.7175480769231 15.7563613231552  C 32.041266025641 15.45737913486  33.6738782051282 15.2879558948261  34.6153846153846 15.2480916030534  L 34.6153846153846 15.3078880407125  C 34.5953525641026 15.3477523324852  34.560296474359 15.5221586089907  34.5102163461538 15.831106870229  C 34.4601362179487 16.1400551314673  34.4100560897436 16.4789016115352  34.3599759615385 16.8476463104326  C 34.3098958333333 17.2163910093299  34.2748397435897 17.4306615776081  34.2548076923077 17.4904580152672  C 33.7740384615385 20.4802798982188  33.5336538461538 22.921967769296  33.5336538461538 24.8155216284987  C 33.5336538461538 26.4100932994063  33.8842147435897 27.5761238337574  34.5853365384615 28.3136132315522  C 35.4667467948718 29.230491942324  36.3581730769231 29.6889312977099  37.2596153846154 29.6889312977099  C 37.7003205128205 29.6889312977099  38.2061298076923 29.5394402035623  38.7770432692308 29.2404580152672  C 39.3479567307692 28.941475826972  39.8788060897436 28.6076123833757  40.3695913461538 28.2388676844784  C 40.8603766025641 27.870122985581  41.5064102564103 27.5362595419847  42.3076923076923 27.2372773536896  C 43.1089743589744 26.9382951653944  43.9403044871795 26.7888040712468  44.8016826923077 26.7888040712468  C 46.4443108974359 26.7888040712468  47.7213541666667 27.376802374894  48.6328125 28.5527989821883  Z " fill-rule="nonzero" fill="#0d64e8" stroke="none" transform="matrix(1 0 0 1 25 27 )" />
  </g>
</svg>