<?xml version="1.0" encoding="utf-8"?>
<svg version="1.1" xmlns:xlink="http://www.w3.org/1999/xlink" width="50px" height="47px" xmlns="http://www.w3.org/2000/svg">
  <g transform="matrix(1 0 0 1 -341 -1618 )">
    <path d="M 27.3137019230769 27.0188802083333  C 25.5709134615385 21.8578559027778  23.7279647435897 17.2476128472222  21.7848557692308 13.1881510416667  L 16.6766826923077 26.9576822916667  C 17.3377403846154 26.9576822916667  18.7049278846154 26.9780815972222  20.7782451923077 27.0188802083333  C 22.8515625 27.0596788194444  24.4591346153846 27.080078125  25.6009615384615 27.080078125  C 25.9815705128205 27.080078125  26.552483974359 27.0596788194444  27.3137019230769 27.0188802083333  Z M 5.64903846153846 46.5716145833333  C 4.04647435897436 46.8572048611111  2.16346153846154 47  0 47  L 0.0600961538461538 44.5826822916667  C 0.520833333333333 44.4398871527778  1.08173076923077 44.3123914930556  1.74278846153846 44.2001953125  C 2.40384615384615 44.0879991319444  2.97475961538462 43.9809027777778  3.45552884615385 43.87890625  C 3.93629807692308 43.7769097222222  4.43209134615385 43.6290147569444  4.94290865384615 43.4352213541667  C 5.45372596153846 43.2414279513889  5.8994391025641 42.9456380208333  6.28004807692308 42.5478515625  C 6.66065705128205 42.1500651041667  6.97115384615385 41.6349826388889  7.21153846153846 41.0026041666667  L 14.3329326923077 22.1536458333333  L 22.7463942307692 0  L 25 0  L 26.5925480769231 0  C 26.7528044871795 0.285590277777775  26.8629807692308 0.499782986111107  26.9230769230769 0.642578125  L 33.0829326923077 15.330078125  C 33.7439903846154 16.9212239583333  34.8056891025641 19.5476345486111  36.2680288461538 23.2093098958333  C 37.7303685897436 26.8709852430556  38.8721955128205 29.6707899305556  39.6935096153846 31.6087239583333  C 39.9939903846154 32.3023003472222  40.5749198717949 33.7761501736111  41.4362980769231 36.0302734375  C 42.2976762820513 38.2843967013889  43.0188301282051 40.0030381944444  43.5997596153846 41.1861979166667  C 44.0004006410256 42.1041666666667  44.3509615384615 42.685546875  44.6514423076923 42.9303385416667  C 45.0320512820513 43.236328125  45.9134615384615 43.5372178819444  47.2956730769231 43.8330078125  C 48.6778846153846 44.1287977430556  49.5192307692308 44.337890625  49.8197115384615 44.4602864583333  C 49.9399038461538 45.2354600694444  50 45.8168402777778  50 46.2044270833333  C 50 46.3064236111111  49.9949919871795 46.4441189236111  49.9849759615385 46.6175130208333  C 49.9749599358974 46.7909071180556  49.9699519230769 46.9184027777778  49.9699519230769 47  C 48.7079326923077 47  46.8048878205128 46.9184027777778  44.2608173076923 46.7552083333333  C 41.7167467948718 46.5920138888889  39.8036858974359 46.5104166666667  38.5216346153846 46.5104166666667  C 36.9991987179487 46.5104166666667  34.8457532051282 46.5818142361111  32.0612980769231 46.724609375  C 29.276842948718 46.8674045138889  27.4939903846154 46.9490017361111  26.7127403846154 46.9694010416667  C 26.7127403846154 46.0922309027778  26.7528044871795 45.2966579861111  26.8329326923077 44.5826822916667  L 30.7692307692308 43.7259114583333  C 30.7892628205128 43.7259114583333  30.9144631410256 43.7004123263889  31.1448317307692 43.6494140625  C 31.3752003205128 43.5984157986111  31.5304487179487 43.5627170138889  31.6105769230769 43.5423177083333  C 31.6907051282051 43.5219184027778  31.8359375 43.4760199652778  32.0462740384615 43.4046223958333  C 32.2566105769231 43.3332248263889  32.4068509615385 43.2669270833333  32.4969951923077 43.2057291666667  C 32.5871394230769 43.14453125  32.6973157051282 43.0629340277778  32.8275240384615 42.9609375  C 32.9577323717949 42.8589409722222  33.0478766025641 42.7467447916667  33.0979567307692 42.6243489583333  C 33.1480368589744 42.501953125  33.1730769230769 42.3591579861111  33.1730769230769 42.1959635416667  C 33.1730769230769 41.8695746527778  32.8625801282051 40.8853081597222  32.2415865384615 39.2431640625  C 31.620592948718 37.6010199652778  30.8994391025641 35.7905815972222  30.078125 33.8118489583333  C 29.2568108974359 31.8331163194444  28.8361378205128 30.8131510416667  28.8161057692308 30  L 15.2944711538462 30  C 14.7736378205128 31.8739149305556  14.0074118589744 33.8679470486111  12.9957932692308 36.6728515625  C 11.9841746794872 39.4777560763889  11.4783653846154 41.1351996527778  11.4783653846154 41.6451822916667  C 11.4783653846154 42.0939670138889  11.6185897435897 42.4764539930556  11.8990384615385 42.7926432291667  C 12.1794871794872 43.1088324652778  12.6151842948718 43.3587239583333  13.2061298076923 43.5423177083333  C 13.7970753205128 43.7259114583333  14.2828525641026 43.8636067708333  14.6634615384615 43.9554036458333  C 15.0440705128205 44.0472005208333  15.614983974359 44.1338975694444  16.3762019230769 44.2154947916667  C 17.1374198717949 44.2970920138889  17.5480769230769 44.337890625  17.6081730769231 44.337890625  C 17.6282051282051 44.7254774305556  17.6382211538462 45.3170572916667  17.6382211538462 46.1126302083333  C 17.6382211538462 46.2962239583333  17.6181891025641 46.5716145833333  17.578125 46.9388020833333  C 16.416266025641 46.9388020833333  14.6684695512821 46.8368055555556  12.3347355769231 46.6328125  C 10.0010016025641 46.4288194444444  8.25320512820513 46.3268229166667  7.09134615384615 46.3268229166667  C 6.93108974358974 46.3268229166667  6.66566506410256 46.3676215277778  6.29507211538462 46.44921875  C 5.92447916666667 46.5308159722222  5.70913461538462 46.5716145833333  5.64903846153846 46.5716145833333  Z " fill-rule="nonzero" fill="#0d64e8" stroke="none" transform="matrix(1 0 0 1 341 1618 )" />
  </g>
</svg>