<?xml version="1.0" encoding="utf-8"?>
<svg version="1.1" xmlns:xlink="http://www.w3.org/1999/xlink" width="33px" height="45px" xmlns="http://www.w3.org/2000/svg">
  <g transform="matrix(1 0 0 1 -378 -1620 )">
    <path d="M 3.8994140625 44.619140625  C 1.9228515625 44.794921875  0.623046875 44.90234375  0 44.94140625  L 0.5478515625 42.451171875  C 1.0205078125 42.314453125  1.68115234375 42.1533203125  2.52978515625 41.9677734375  C 3.37841796875 41.7822265625  4.15185546875 41.5966796875  4.85009765625 41.4111328125  C 5.54833984375 41.2255859375  6.1875 40.99609375  6.767578125 40.72265625  C 7.369140625 40.0390625  7.8095703125 39.052734375  8.0888671875 37.763671875  C 8.1103515625 37.626953125  8.7763671875 34.8046875  10.0869140625 29.296875  C 11.3974609375 23.7890625  12.6220703125 18.4814453125  13.7607421875 13.3740234375  C 14.8994140625 8.26660156249999  15.4580078125 5.37109375  15.4365234375 4.6875  L 15.4365234375 3.955078125  C 14.9208984375 3.701171875  14.33544921875 3.52050781249999  13.68017578125 3.4130859375  C 13.02490234375 3.3056640625  12.2783203125 3.2275390625  11.4404296875 3.1787109375  C 10.6025390625 3.1298828125  9.9794921875 3.076171875  9.5712890625 3.017578125  L 10.18359375 0  C 10.892578125 0.0390624999999961  12.181640625 0.102539062500002  14.05078125 0.190429687500002  C 15.919921875 0.278320312500002  17.52587890625 0.346679687499996  18.86865234375 0.3955078125  C 20.21142578125 0.444335937499994  21.505859375 0.468749999999998  22.751953125 0.468749999999998  C 23.783203125 0.468749999999998  24.84130859375 0.444335937499994  25.92626953125 0.3955078125  C 27.01123046875 0.346679687499996  28.31103515625 0.278320312500002  29.82568359375 0.190429687500002  C 31.34033203125 0.102539062500002  32.3984375 0.0390624999999961  33 0  C 32.892578125 0.761718750000002  32.6884765625 1.63085937499999  32.3876953125 2.607421875  C 31.7431640625 2.802734375  30.65283203125 3.08105468749999  29.11669921875 3.4423828125  C 27.58056640625 3.8037109375  26.4150390625 4.130859375  25.6201171875 4.423828125  C 25.4482421875 4.79492187499999  25.2978515625 5.2099609375  25.1689453125 5.6689453125  C 25.0400390625 6.1279296875  24.943359375 6.5185546875  24.87890625 6.8408203125  C 24.814453125 7.1630859375  24.73388671875 7.60742187499999  24.63720703125 8.173828125  C 24.54052734375 8.740234375  24.470703125 9.150390625  24.427734375 9.404296875  C 23.84765625 12.294921875  22.90771484375 16.3916015625  21.60791015625 21.6943359375  C 20.30810546875 26.9970703125  19.4755859375 30.46875  19.1103515625 32.109375  C 19.0673828125 32.28515625  18.927734375 32.8515625  18.69140625 33.80859375  C 18.455078125 34.765625  18.240234375 35.64453125  18.046875 36.4453125  C 17.853515625 37.24609375  17.681640625 38.0615234375  17.53125 38.8916015625  C 17.380859375 39.7216796875  17.31640625 40.283203125  17.337890625 40.576171875  L 17.3701171875 41.103515625  C 17.7353515625 41.181640625  19.72265625 41.484375  23.33203125 42.01171875  C 23.267578125 42.87109375  23.095703125 43.837890625  22.81640625 44.912109375  C 22.580078125 44.912109375  22.23095703125 44.9267578125  21.76904296875 44.9560546875  C 21.30712890625 44.9853515625  20.9580078125 45  20.7216796875 45  C 20.0986328125 45  19.1640625 44.90234375  17.91796875 44.70703125  C 16.671875 44.51171875  15.748046875 44.4140625  15.146484375 44.4140625  C 12.181640625 44.375  9.96875 44.35546875  8.5078125 44.35546875  C 7.412109375 44.35546875  5.8759765625 44.443359375  3.8994140625 44.619140625  Z " fill-rule="nonzero" fill="#0d64e8" stroke="none" transform="matrix(1 0 0 1 378 1620 )" />
  </g>
</svg>