<?xml version="1.0" encoding="utf-8"?>
<svg version="1.1" xmlns:xlink="http://www.w3.org/1999/xlink" width="70px" height="70px" xmlns="http://www.w3.org/2000/svg">
  <g transform="matrix(1 0 0 1 -710 -1606 )">
    <path d="M 49.423828125 49.423828125  C 51.8695746527778 46.9780815972222  53.5785590277778 44.1145833333333  54.55078125 40.8333333333333  L 49.5833333333333 40.8333333333333  C 48.7934027777778 40.8333333333333  48.1098090277778 40.5447048611111  47.5325520833333 39.9674479166667  C 46.9552951388889 39.3901909722222  46.6666666666667 38.7065972222222  46.6666666666667 37.9166666666667  L 46.6666666666667 32.0833333333333  C 46.6666666666667 31.2934027777778  46.9552951388889 30.6098090277778  47.5325520833333 30.0325520833333  C 48.1098090277778 29.4552951388889  48.7934027777778 29.1666666666667  49.5833333333333 29.1666666666667  L 54.55078125 29.1666666666667  C 53.5785590277778 25.8854166666667  51.8695746527778 23.0219184027778  49.423828125 20.576171875  C 46.9780815972222 18.1304253472222  44.1145833333333 16.4214409722222  40.8333333333333 15.44921875  L 40.8333333333333 20.4166666666667  C 40.8333333333333 21.2065972222222  40.5447048611111 21.8901909722222  39.9674479166667 22.4674479166667  C 39.3901909722222 23.0447048611111  38.7065972222222 23.3333333333333  37.9166666666667 23.3333333333333  L 32.0833333333333 23.3333333333333  C 31.2934027777778 23.3333333333333  30.6098090277778 23.0447048611111  30.0325520833333 22.4674479166667  C 29.4552951388889 21.8901909722222  29.1666666666667 21.2065972222222  29.1666666666667 20.4166666666667  L 29.1666666666667 15.44921875  C 25.8854166666667 16.4214409722222  23.0219184027778 18.1304253472222  20.576171875 20.576171875  C 18.1304253472222 23.0219184027778  16.4214409722222 25.8854166666667  15.44921875 29.1666666666667  L 20.4166666666667 29.1666666666667  C 21.2065972222222 29.1666666666667  21.8901909722222 29.4552951388889  22.4674479166667 30.0325520833333  C 23.0447048611111 30.6098090277778  23.3333333333333 31.2934027777778  23.3333333333333 32.0833333333333  L 23.3333333333333 37.9166666666667  C 23.3333333333333 38.7065972222222  23.0447048611111 39.3901909722222  22.4674479166667 39.9674479166667  C 21.8901909722222 40.5447048611111  21.2065972222222 40.8333333333333  20.4166666666667 40.8333333333333  L 15.44921875 40.8333333333333  C 16.4214409722222 44.1145833333333  18.1304253472222 46.9780815972222  20.576171875 49.423828125  C 23.0219184027778 51.8695746527778  25.8854166666667 53.5785590277778  29.1666666666667 54.55078125  L 29.1666666666667 49.5833333333333  C 29.1666666666667 48.7934027777778  29.4552951388889 48.1098090277778  30.0325520833333 47.5325520833333  C 30.6098090277778 46.9552951388889  31.2934027777778 46.6666666666667  32.0833333333333 46.6666666666667  L 37.9166666666667 46.6666666666667  C 38.7065972222222 46.6666666666667  39.3901909722222 46.9552951388889  39.9674479166667 47.5325520833333  C 40.5447048611111 48.1098090277778  40.8333333333333 48.7934027777778  40.8333333333333 49.5833333333333  L 40.8333333333333 54.55078125  C 44.1145833333333 53.5785590277778  46.9780815972222 51.8695746527778  49.423828125 49.423828125  Z M 69.1341145833333 30.0325520833333  C 69.7113715277778 30.6098090277778  70 31.2934027777778  70 32.0833333333333  L 70 37.9166666666667  C 70 38.7065972222222  69.7113715277778 39.3901909722222  69.1341145833333 39.9674479166667  C 68.5568576388889 40.5447048611111  67.8732638888889 40.8333333333333  67.0833333333333 40.8333333333333  L 60.56640625 40.8333333333333  C 59.4422743055556 45.7248263888889  57.0952690972222 49.9555121527778  53.525390625 53.525390625  C 49.9555121527778 57.0952690972222  45.7248263888889 59.4422743055556  40.8333333333333 60.56640625  L 40.8333333333333 67.0833333333333  C 40.8333333333333 67.8732638888889  40.5447048611111 68.5568576388889  39.9674479166667 69.1341145833333  C 39.3901909722222 69.7113715277778  38.7065972222222 70  37.9166666666667 70  L 32.0833333333333 70  C 31.2934027777778 70  30.6098090277778 69.7113715277778  30.0325520833333 69.1341145833333  C 29.4552951388889 68.5568576388889  29.1666666666667 67.8732638888889  29.1666666666667 67.0833333333333  L 29.1666666666667 60.56640625  C 24.2751736111111 59.4422743055556  20.0444878472222 57.0952690972222  16.474609375 53.525390625  C 12.9047309027778 49.9555121527778  10.5577256944444 45.7248263888889  9.43359375 40.8333333333333  L 2.91666666666667 40.8333333333333  C 2.12673611111111 40.8333333333333  1.44314236111111 40.5447048611111  0.865885416666667 39.9674479166667  C 0.288628472222222 39.3901909722222  0 38.7065972222222  0 37.9166666666667  L 0 32.0833333333333  C 0 31.2934027777778  0.288628472222222 30.6098090277778  0.865885416666667 30.0325520833333  C 1.44314236111111 29.4552951388889  2.12673611111111 29.1666666666667  2.91666666666667 29.1666666666667  L 9.43359375 29.1666666666667  C 10.5577256944444 24.2751736111111  12.9047309027778 20.0444878472222  16.474609375 16.474609375  C 20.0444878472222 12.9047309027778  24.2751736111111 10.5577256944444  29.1666666666667 9.43359375  L 29.1666666666667 2.91666666666666  C 29.1666666666667 2.1267361111111  29.4552951388889 1.4431423611111  30.0325520833333 0.865885416666664  C 30.6098090277778 0.288628472222219  31.2934027777778 0  32.0833333333333 0  L 37.9166666666667 0  C 38.7065972222222 0  39.3901909722222 0.288628472222219  39.9674479166667 0.865885416666664  C 40.5447048611111 1.4431423611111  40.8333333333333 2.1267361111111  40.8333333333333 2.91666666666666  L 40.8333333333333 9.43359375  C 45.7248263888889 10.5577256944444  49.9555121527778 12.9047309027778  53.525390625 16.474609375  C 57.0952690972222 20.0444878472222  59.4422743055556 24.2751736111111  60.56640625 29.1666666666667  L 67.0833333333333 29.1666666666667  C 67.8732638888889 29.1666666666667  68.5568576388889 29.4552951388889  69.1341145833333 30.0325520833333  Z " fill-rule="nonzero" fill="#0d64e8" stroke="none" transform="matrix(1 0 0 1 710 1606 )" />
  </g>
</svg>