<?xml version="1.0" encoding="utf-8"?>
<svg version="1.1" xmlns:xlink="http://www.w3.org/1999/xlink" width="70px" height="60px" xmlns="http://www.w3.org/2000/svg">
  <g transform="matrix(1 0 0 1 -1079 -1616 )">
    <path d="M 21.1598557692308 54.1619318181818  C 21.4122596153846 53.90625  21.5384615384615 53.5795454545455  21.5384615384615 53.1818181818182  L 21.5384615384615 45  C 21.5384615384615 44.6022727272727  21.4122596153846 44.2755681818182  21.1598557692308 44.0198863636364  C 20.9074519230769 43.7642045454545  20.5849358974359 43.6363636363636  20.1923076923077 43  L 6.73076923076923 43  C 6.33814102564103 43.6363636363636  6.015625 43.7642045454545  5.76322115384615 44.0198863636364  C 5.51081730769231 44.2755681818182  5.38461538461539 44.6022727272727  5.38461538461539 45  L 5.38461538461539 53.1818181818182  C 5.38461538461539 53.5795454545455  5.51081730769231 53.90625  5.76322115384615 54.1619318181818  C 6.015625 54.4176136363636  6.33814102564103 54.5454545454545  6.73076923076923 54  L 20.1923076923077 54  C 20.5849358974359 54.5454545454545  20.9074519230769 54.4176136363636  21.1598557692308 54.1619318181818  Z M 21.1598557692308 37.7982954545455  C 21.4122596153846 37.5426136363636  21.5384615384615 37.2159090909091  21.5384615384615 36.8181818181818  L 21.5384615384615 28.6363636363636  C 21.5384615384615 28.2386363636364  21.4122596153846 27.9119318181818  21.1598557692308 27.65625  C 20.9074519230769 27.4005681818182  20.5849358974359 27.2727272727273  20.1923076923077 28  L 6.73076923076923 28  C 6.33814102564103 27.2727272727273  6.015625 27.4005681818182  5.76322115384615 27.65625  C 5.51081730769231 27.9119318181818  5.38461538461539 28.2386363636364  5.38461538461539 28.6363636363636  L 5.38461538461539 36.8181818181818  C 5.38461538461539 37.2159090909091  5.51081730769231 37.5426136363636  5.76322115384615 37.7982954545455  C 6.015625 38.0539772727273  6.33814102564103 38.1818181818182  6.73076923076923 38  L 20.1923076923077 38  C 20.5849358974359 38.1818181818182  20.9074519230769 38.0539772727273  21.1598557692308 37.7982954545455  Z M 42.6983173076923 54.1619318181818  C 42.9507211538462 53.90625  43.0769230769231 53.5795454545455  43.0769230769231 53.1818181818182  L 43.0769230769231 45  C 43.0769230769231 44.6022727272727  42.9507211538462 44.2755681818182  42.6983173076923 44.0198863636364  C 42.4459134615385 43.7642045454545  42.1233974358974 43.6363636363636  41.7307692307692 43  L 28.2692307692308 43  C 27.8766025641026 43.6363636363636  27.5540865384615 43.7642045454545  27.3016826923077 44.0198863636364  C 27.0492788461538 44.2755681818182  26.9230769230769 44.6022727272727  26.9230769230769 45  L 26.9230769230769 53.1818181818182  C 26.9230769230769 53.5795454545455  27.0492788461538 53.90625  27.3016826923077 54.1619318181818  C 27.5540865384615 54.4176136363636  27.8766025641026 54.5454545454545  28.2692307692308 54  L 41.7307692307692 54  C 42.1233974358974 54.5454545454545  42.4459134615385 54.4176136363636  42.6983173076923 54.1619318181818  Z M 21.1598557692308 21.4346590909091  C 21.4122596153846 21.1789772727273  21.5384615384615 20.8522727272727  21.5384615384615 20.4545454545455  L 21.5384615384615 12.2727272727273  C 21.5384615384615 11.875  21.4122596153846 11.5482954545455  21.1598557692308 11.2926136363636  C 20.9074519230769 11.0369318181818  20.5849358974359 10.9090909090909  20.1923076923077 11  L 6.73076923076923 11  C 6.33814102564103 10.9090909090909  6.015625 11.0369318181818  5.76322115384615 11.2926136363636  C 5.51081730769231 11.5482954545455  5.38461538461539 11.875  5.38461538461539 12.2727272727273  L 5.38461538461539 20.4545454545455  C 5.38461538461539 20.8522727272727  5.51081730769231 21.1789772727273  5.76322115384615 21.4346590909091  C 6.015625 21.6903409090909  6.33814102564103 21.8181818181818  6.73076923076923 22  L 20.1923076923077 22  C 20.5849358974359 21.8181818181818  20.9074519230769 21.6903409090909  21.1598557692308 21.4346590909091  Z M 42.6983173076923 37.7982954545455  C 42.9507211538462 37.5426136363636  43.0769230769231 37.2159090909091  43.0769230769231 36.8181818181818  L 43.0769230769231 28.6363636363636  C 43.0769230769231 28.2386363636364  42.9507211538462 27.9119318181818  42.6983173076923 27.65625  C 42.4459134615385 27.4005681818182  42.1233974358974 27.2727272727273  41.7307692307692 28  L 28.2692307692308 28  C 27.8766025641026 27.2727272727273  27.5540865384615 27.4005681818182  27.3016826923077 27.65625  C 27.0492788461538 27.9119318181818  26.9230769230769 28.2386363636364  26.9230769230769 28.6363636363636  L 26.9230769230769 36.8181818181818  C 26.9230769230769 37.2159090909091  27.0492788461538 37.5426136363636  27.3016826923077 37.7982954545455  C 27.5540865384615 38.0539772727273  27.8766025641026 38.1818181818182  28.2692307692308 38  L 41.7307692307692 38  C 42.1233974358974 38.1818181818182  42.4459134615385 38.0539772727273  42.6983173076923 37.7982954545455  Z M 64.2367788461539 54.1619318181818  C 64.4891826923077 53.90625  64.6153846153846 53.5795454545455  64.6153846153846 53.1818181818182  L 64.6153846153846 45  C 64.6153846153846 44.6022727272727  64.4891826923077 44.2755681818182  64.2367788461539 44.0198863636364  C 63.984375 43.7642045454545  63.661858974359 43.6363636363636  63.2692307692308 43  L 49.8076923076923 43  C 49.4150641025641 43.6363636363636  49.0925480769231 43.7642045454545  48.8401442307692 44.0198863636364  C 48.5877403846154 44.2755681818182  48.4615384615385 44.6022727272727  48.4615384615385 45  L 48.4615384615385 53.1818181818182  C 48.4615384615385 53.5795454545455  48.5877403846154 53.90625  48.8401442307692 54.1619318181818  C 49.0925480769231 54.4176136363636  49.4150641025641 54.5454545454545  49.8076923076923 54  L 63.2692307692308 54  C 63.661858974359 54.5454545454545  63.984375 54.4176136363636  64.2367788461539 54.1619318181818  Z M 42.6983173076923 21.4346590909091  C 42.9507211538462 21.1789772727273  43.0769230769231 20.8522727272727  43.0769230769231 20.4545454545455  L 43.0769230769231 12.2727272727273  C 43.0769230769231 11.875  42.9507211538462 11.5482954545455  42.6983173076923 11.2926136363636  C 42.4459134615385 11.0369318181818  42.1233974358974 10.9090909090909  41.7307692307692 11  L 28.2692307692308 11  C 27.8766025641026 10.9090909090909  27.5540865384615 11.0369318181818  27.3016826923077 11.2926136363636  C 27.0492788461538 11.5482954545455  26.9230769230769 11.875  26.9230769230769 12.2727272727273  L 26.9230769230769 20.4545454545455  C 26.9230769230769 20.8522727272727  27.0492788461538 21.1789772727273  27.3016826923077 21.4346590909091  C 27.5540865384615 21.6903409090909  27.8766025641026 21.8181818181818  28.2692307692308 22  L 41.7307692307692 22  C 42.1233974358974 21.8181818181818  42.4459134615385 21.6903409090909  42.6983173076923 21.4346590909091  Z M 64.2367788461539 37.7982954545455  C 64.4891826923077 37.5426136363636  64.6153846153846 37.2159090909091  64.6153846153846 36.8181818181818  L 64.6153846153846 28.6363636363636  C 64.6153846153846 28.2386363636364  64.4891826923077 27.9119318181818  64.2367788461539 27.65625  C 63.984375 27.4005681818182  63.661858974359 27.2727272727273  63.2692307692308 28  L 49.8076923076923 28  C 49.4150641025641 27.2727272727273  49.0925480769231 27.4005681818182  48.8401442307692 27.65625  C 48.5877403846154 27.9119318181818  48.4615384615385 28.2386363636364  48.4615384615385 28.6363636363636  L 48.4615384615385 36.8181818181818  C 48.4615384615385 37.2159090909091  48.5877403846154 37.5426136363636  48.8401442307692 37.7982954545455  C 49.0925480769231 38.0539772727273  49.4150641025641 38.1818181818182  49.8076923076923 38  L 63.2692307692308 38  C 63.661858974359 38.1818181818182  63.984375 38.0539772727273  64.2367788461539 37.7982954545455  Z M 64.2367788461539 21.4346590909091  C 64.4891826923077 21.1789772727273  64.6153846153846 20.8522727272727  64.6153846153846 20.4545454545455  L 64.6153846153846 12.2727272727273  C 64.6153846153846 11.875  64.4891826923077 11.5482954545455  64.2367788461539 11.2926136363636  C 63.984375 11.0369318181818  63.661858974359 10.9090909090909  63.2692307692308 11  L 49.8076923076923 11  C 49.4150641025641 10.9090909090909  49.0925480769231 11.0369318181818  48.8401442307692 11.2926136363636  C 48.5877403846154 11.5482954545455  48.4615384615385 11.875  48.4615384615385 12.2727272727273  L 48.4615384615385 20.4545454545455  C 48.4615384615385 20.8522727272727  48.5877403846154 21.1789772727273  48.8401442307692 21.4346590909091  C 49.0925480769231 21.6903409090909  49.4150641025641 21.8181818181818  49.8076923076923 22  L 63.2692307692308 22  C 63.661858974359 21.8181818181818  63.984375 21.6903409090909  64.2367788461539 21.4346590909091  Z M 68.0228365384615 2.00284090909091  C 69.3409455128205 3.33806818181818  70 4.94318181818182  70 6.81818181818182  L 70 53.1818181818182  C 70 55.0568181818182  69.3409455128205 56.6619318181818  68.0228365384615 57.9971590909091  C 66.7047275641026 59.3323863636364  65.1201923076923 60  63.2692307692308 60  L 6.73076923076923 60  C 4.87980769230769 60  3.29527243589744 59.3323863636364  1.97716346153846 57.9971590909091  C 0.659054487179487 56.6619318181818  0 55.0568181818182  0 53.1818181818182  L 0 6.81818181818182  C 0 4.94318181818182  0.659054487179487 3.33806818181818  1.97716346153846 2.00284090909091  C 3.29527243589744 0.667613636363629  4.87980769230769 0  6.73076923076923 0  L 63.2692307692308 0  C 65.1201923076923 0  66.7047275641026 0.667613636363629  68.0228365384615 2.00284090909091  Z " fill-rule="nonzero" fill="#0d64e8" stroke="none" transform="matrix(1 0 0 1 1079 1616 )" />
  </g>
</svg>