<?xml version="1.0" encoding="utf-8"?>
<svg version="1.1" xmlns:xlink="http://www.w3.org/1999/xlink" width="70px" height="60px" xmlns="http://www.w3.org/2000/svg">
  <g transform="matrix(1 0 0 1 -1448 -1616 )">
    <path d="M 60.6465517241379 22.1590909090909  C 62.0545977011494 20.5681818181818  62.7586206896552 18.6363636363636  62.7586206896552 16.3636363636364  C 62.7586206896552 14.0909090909091  62.0545977011494 12.1590909090909  60.6465517241379 10.5681818181818  C 59.2385057471264 8.97727272727272  57.5287356321839 8.18181818181818  55.5172413793103 8.18181818181818  L 53 8.18181818181818  L 53 24.5454545454545  L 55.5172413793103 24.5454545454545  C 57.5287356321839 24.5454545454545  59.2385057471264 23.75  60.6465517241379 22.1590909090909  Z M 2.82866379310345 56.8039772727273  C 0.942887931034483 54.6732954545455  0 52.1022727272727  0 49  L 67.5862068965517 49  C 67.5862068965517 52.1022727272727  66.6433189655172 54.6732954545455  64.7575431034483 56.8039772727273  C 62.8717672413793 58.9346590909091  60.5962643678161 60  57.9310344827586 60  L 9.6551724137931 60  C 6.98994252873563 60  4.71443965517241 58.9346590909091  2.82866379310345 56.8039772727273  Z M 65.7570043103448 4.79403409090909  C 68.5856681034483 7.99005681818182  70 11.8465909090909  70 16.3636363636364  C 70 20.8806818181818  68.5856681034483 24.7372159090909  65.7570043103448 27.9332386363636  C 62.9283405172414 31.1292613636364  59.5150862068966 32.7272727272727  55.5172413793103 32.7272727272727  L 53.1034482758621 32.7272727272727  L 53.1034482758621 34.0909090909091  C 53.1034482758621 36.7045454545455  52.2737068965517 38.9488636363636  50.614224137931 40.8238636363636  C 48.9547413793103 42.6988636363636  46.9683908045977 43.6363636363636  44.6551724137931 43  L 18.1034482758621 43  C 15.7902298850575 43.6363636363636  13.8038793103448 42.6988636363636  12.1443965517241 40.8238636363636  C 10.4849137931034 38.9488636363636  9.6551724137931 36.7045454545455  10 34.0909090909091  L 10 2.72727272727272  C 9.6551724137931 1.98863636363636  9.89403735632184 1.34943181818181  10.3717672413793 0.809659090909094  C 10.8494971264368 0.269886363636358  11.4152298850575 0  12.0689655172414 0  L 55.5172413793103 0  C 59.5150862068966 0  62.9283405172414 1.59801136363636  65.7570043103448 4.79403409090909  Z " fill-rule="nonzero" fill="#0d64e8" stroke="none" transform="matrix(1 0 0 1 1448 1616 )" />
  </g>
</svg>