<svg xmlns="http://www.w3.org/2000/svg" xmlns:xlink="http://www.w3.org/1999/xlink" fill="none" version="1.1" width="785.739990234375" height="873.3900146484375" viewBox="0 0 785.739990234375 873.3900146484375"><defs><clipPath id="master_svg0_342_7228"><rect x="0" y="0" width="785.739990234375" height="873.3900146484375" rx="0"/></clipPath></defs><g clip-path="url(#master_svg0_342_7228)"><g><path d="M557.8000036621094,361.5900006103516C557.8000036621094,397.13000061035154,546.4100036621094,430.01000061035154,527.0800036621093,456.76000061035154L456.06000366210935,385.74000061035156C457.3500036621094,383.50000061035155,458.08000366210933,380.9100006103516,458.08000366210933,378.14000061035154C458.08000366210933,369.67000061035156,451.2100036621094,362.80000061035156,442.7500036621094,362.80000061035156C439.98000366210937,362.80000061035156,437.3900036621094,363.5300006103515,435.1500036621094,364.8200006103516L299.9100036621094,229.59000061035155C326.67000366210937,210.25000061035155,359.55000366210936,198.86000061035156,395.07000366210934,198.86000061035156C422.17000366210937,198.86000061035156,447.7100036621094,205.48000061035157,470.19000366210935,217.20000061035157L432.2700036621094,255.12000061035155C430.2700036621094,254.12000061035155,428.0100036621094,253.56000061035155,425.61000366210936,253.56000061035155C417.36000366210936,253.56000061035155,410.67000366210937,260.25000061035155,410.67000366210937,268.50000061035155C410.67000366210937,276.74000061035156,417.36000366210936,283.43000061035156,425.61000366210936,283.43000061035156C433.86000366210936,283.43000061035156,440.55000366210936,276.74000061035156,440.55000366210936,268.50000061035155C440.55000366210936,265.7200006103516,439.7800036621094,263.11000061035156,438.45000366210934,260.88000061035154L477.8500036621094,221.48000061035157C502.06000366210935,235.82000061035157,522.2400036621094,256.25000061035155,536.2700036621094,280.67000061035156L498.8900036621094,318.05000061035156C496.7700036621094,316.6600006103516,494.20000366210934,316.05000061035156,491.81000366210935,316.05000061035156C483.56000366210935,316.05000061035156,476.8700036621094,322.74000061035156,476.8700036621094,330.99000061035156C476.8700036621094,339.23000061035157,483.56000366210935,345.92000061035156,491.81000366210935,345.92000061035156C500.06000366210935,345.92000061035156,506.7500036621094,339.23000061035157,506.7500036621094,330.99000061035156C506.7500036621094,328.2100006103516,505.98000366210937,325.6000006103516,504.6500036621094,323.37000061035155L540.1500036621094,287.87000061035155C551.4400036621093,309.9700006103516,557.8000036621094,335.04000061035157,557.8000036621094,361.5900006103516Z" fill="#47B1ED" fill-opacity="1"/></g><g><path d="M429.92004455566405,386.01998535156247L392.0000445556641,424.2299853515625C389.5800445556641,422.52998535156246,386.6200445556641,421.5399853515625,383.450044555664,421.5399853515625C380.1200445556641,421.5399853515625,377.04004455566405,422.6299853515625,374.55004455566404,424.4899853515625L330.6200445556641,383.2099853515625C331.28004455566406,381.5399853515625,331.6300445556641,379.7199853515625,331.6300445556641,377.81998535156254C331.6300445556641,369.56998535156254,324.94004455566403,362.8799853515625,316.69004455566403,362.8799853515625C308.44004455566403,362.8799853515625,301.7600445556641,369.56998535156254,301.7600445556641,377.81998535156254C301.7600445556641,379.8099853515625,302.15004455566407,381.7099853515625,302.86004455566405,383.44998535156253L249.94004455566406,434.44998535156253C238.64004455566408,412.2999853515625,232.28004455566406,387.2199853515625,232.28004455566406,360.6399853515625C232.28004455566406,309.5299853515625,255.85004455566406,263.9299853515625,292.69004455566403,234.1099853515625L429.2700445556641,370.68998535156254C428.1100445556641,372.7999853515625,427.46004455566407,375.2399853515625,427.46004455566407,377.81998535156254C427.47004455566406,380.8499853515625,428.3700445556641,383.6799853515625,429.92004455566405,386.01998535156247Z" fill="#55E7AD" fill-opacity="1"/></g><g><path d="M521.5499847412109,462.9599853515625C491.71998474121096,499.8099853515625,446.11998474121094,523.3599853515625,395.0099847412109,523.3599853515625C334.72998474121096,523.3599853515625,282.10998474121095,490.5899853515625,253.99998474121094,441.8999853515625L307.78998474121096,389.7999873515625C310.2699847412109,391.6499953515625,313.34998474121096,392.7399853515625,316.67998474121094,392.7399853515625C320.11998474121094,392.7399853515625,323.28998474121096,391.5699753515625,325.81998474121093,389.6099853515625L369.62998474121093,430.7799853515625C368.74998474121094,432.6799853515625,368.5099847412109,434.2399853515625,368.5099847412109,436.4599853515625C368.5099847412109,444.7099853515625,375.18998474121094,451.3999853515625,383.43998474121094,451.3999853515625C391.68998474121094,451.3999853515625,398.37998474121093,444.7099853515625,398.37998474121093,436.4599853515625C398.37998474121093,434.2599853515625,397.9099847412109,432.1799853515625,397.04998474121095,430.2899853515625L435.60998474121095,391.0999453515625C437.6499847412109,392.1399553515625,439.959984741211,392.7299453515625,442.3899847412109,392.7299453515625C444.96998474121096,392.7299453515625,447.3999847412109,392.0799553515625,449.5099847412109,390.9199553515625L521.5499847412109,462.9599853515625Z" fill="#234D95" fill-opacity="1"/></g><g><g><path d="M333.5700158691406,648.2099805664062L320.71001586914065,648.2099805664062L320.71001586914065,650.3000805664062C320.71001586914065,652.5400805664062,320.41001586914064,652.9900805664063,318.02001586914065,652.9900805664063C315.6300158691406,652.9900805664063,313.23001586914063,653.1400805664063,310.84001586914064,652.9900805664063C310.09001586914064,652.9900805664063,308.90001586914065,651.9400805664062,308.7500158691406,651.4900805664063C308.60001586914063,648.3500805664063,308.60001586914063,645.2099805664062,308.60001586914063,641.7700805664062L325.0500158691406,641.7700805664062L325.0500158691406,629.6600805664062L308.60001586914063,629.6600805664062L308.60001586914063,619.7900805664062C308.60001586914063,619.4900805664063,309.5000158691406,618.8900805664063,309.9500158691406,618.8900805664063C311.7400158691406,618.7400805664063,313.6900158691406,618.8900805664063,315.48001586914063,618.8900805664063C318.1700158691406,618.8900805664063,318.47001586914064,619.1900805664062,318.47001586914064,622.0300805664062C318.47001586914064,622.6300805664063,318.47001586914064,623.2300805664063,318.6200158691406,623.8200805664062L331.48001586914063,623.8200805664062L331.48001586914063,613.5000605664062C331.48001586914063,608.2700805664062,329.98001586914063,606.9200435664062,324.90001586914065,606.7700805664062L290.9500158691406,606.7700805664062L288.8600158691406,606.7700805664062L288.8600158691406,618.7400805664063L291.4000258691406,618.7400805664063C294.2400158691406,618.7400805664063,294.2400158691406,618.7400805664063,294.2400158691406,621.5800805664062L294.2400158691406,658.8200805664062C294.2400158691406,663.7500805664063,295.7400158691406,665.2500805664063,300.6700158691406,665.2500805664063L326.6900158691406,665.2500805664063C327.59001586914064,665.2500805664063,328.48001586914063,665.2500805664063,329.23001586914063,665.1000805664063C331.7700158691406,664.6499805664063,333.1200158691406,663.4499805664062,333.2700158691406,660.9100805664062C333.72001586914064,656.7299805664062,333.5700158691406,652.5399805664063,333.5700158691406,648.2099805664062Z" fill="#234D95" fill-opacity="1"/></g><g><path d="M242.19001403808593,650.2999682617187C237.25001403808594,636.3899682617188,232.17001403808592,622.6299682617188,227.23001403808593,608.7199682617188C226.78001403808594,607.3799442617187,226.18001403808594,606.7799682617188,224.54001403808593,606.7799682617188C220.80001403808595,606.9299922617188,216.91001403808593,606.9299922617188,213.17001403808592,606.7799682617188C211.67001403808592,606.7799682617188,211.08001403808595,607.2299802617188,210.63001403808593,608.5699482617188C205.69001403808593,622.3299682617187,200.61000403808595,636.2399682617188,195.82000403808593,649.9999682617188C195.07000403808593,651.9399682617187,194.32000403808593,653.4399682617187,191.78001403808594,653.1399682617188L191.78001403808594,665.1099682617188C195.37001403808594,665.1099682617188,198.81001403808594,665.2599682617188,202.25001403808594,665.1099682617188C204.79001403808593,664.9598682617187,206.59001403808594,663.6099682617188,207.34001403808594,661.0699682617187C208.09001403808594,658.8299682617187,208.99001403808595,656.5799682617187,209.58001403808595,654.3399682617187C209.88001403808593,653.1399682617188,210.48001403808593,652.8399682617187,211.67001403808592,652.8399682617187L225.73001403808593,652.8399682617187C226.93001403808594,652.8399682617187,227.52001403808595,653.2899682617187,227.82001403808593,654.3399682617187C228.57001403808593,656.7299682617188,229.32001403808593,659.1299682617188,230.21001403808594,661.5199682617188C230.81001403808594,663.3099682617187,232.00001403808594,664.6599682617187,233.80001403808595,664.8099682617187C237.69001403808593,664.9599682617187,241.73001403808593,664.8099682617187,245.77001403808595,664.8099682617187L245.77001403808595,652.8399682617187C243.53001403808594,653.5900682617188,242.78001403808594,652.0900682617188,242.19001403808593,650.2999682617187ZM213.62001403808594,641.0300682617187C215.41001403808593,634.6000682617188,217.21001403808594,628.1700682617187,219.00001403808594,621.5900682617188C220.79001403808593,628.1700682617187,222.59001403808594,634.4499682617187,224.38001403808593,641.0300682617187L213.62001403808594,641.0300682617187Z" fill="#234D95" fill-opacity="1"/></g><g><path d="M245.6300049453125,618.5900497070312C246.3800049453125,618.5900497070312,246.6800089453125,618.7400497070313,247.1300089453125,618.7400497070313C250.8700089453125,618.8900497070313,250.8700089453125,618.8900497070313,250.8700089453125,622.6300497070313L250.8700089453125,657.1800497070312C250.8700089453125,658.3800497070313,250.8700089453125,659.7200497070312,251.1700089453125,660.9200497070312C251.4700189453125,663.3100497070312,252.5200189453125,664.3600497070313,254.9100189453125,664.8100497070312C255.6599689453125,664.9600497070312,256.4100689453125,665.1100497070313,257.0000689453125,665.1100497070313L283.6200689453125,665.1100497070313C287.9600689453125,665.1100497070313,289.4499689453125,663.6100497070313,289.6000689453125,659.2800497070313C289.7500689453125,656.1400497070313,289.6000689453125,652.8500497070313,289.6000689453125,649.7100497070312C289.6000689453125,648.3600497070313,289.1500689453125,647.9200497070312,287.8100689453125,647.9200497070312C284.9700689453125,647.9200497070312,281.9800689453125,648.0700497070312,279.1399689453125,647.9200497070312C277.3499689453125,647.7700497070313,276.5999689453125,648.3700497070313,276.7499689453125,650.1600497070312C276.8999689453125,652.4000497070313,276.2999689453125,652.8500497070313,274.0599689453125,652.8500497070313L268.0799689453125,652.8500497070313C265.3899689453125,652.8500497070313,265.0899689453125,652.5500497070312,265.0899689453125,649.8600497070313L265.0899689453125,613.0700697070313C265.0899689453125,612.0200797070313,264.9399689453125,610.8300797070312,264.7899689453125,609.7800897070313C264.4900689453125,607.9800997070313,263.1399689453125,606.7901001070312,261.4999689453125,606.7901001070312C256.2699689453125,606.6400757070312,250.8800089453125,606.7901001070312,245.6499939453125,606.7901001070312C245.6499939453125,607.2401127070312,245.4999999953125,607.5400997070312,245.4999999953125,607.9901097070313C245.4799957453125,611.5599997070312,245.6300049453125,614.9999997070313,245.6300049453125,618.5900497070312Z" fill="#234D95" fill-opacity="1"/></g><g><path d="M507.95991577148436,662.109966796875C505.26991577148436,662.409966796875,504.3699157714844,660.609966796875,503.46991577148435,658.369966796875C497.4899157714844,642.219966796875,491.36001577148437,626.069966796875,485.37001577148436,609.760006796875C484.9200157714844,608.559997796875,484.4700157714844,607.669982796875,482.9800157714844,607.820007296875C481.33001577148434,607.820007296875,480.74001577148437,608.419982796875,480.1400157714844,609.910036796875C474.0100157714844,626.509966796875,467.7300157714844,642.970066796875,461.5900157714844,659.569966796875C460.99001577148437,661.359966796875,459.94001577148435,662.109966796875,458.00001577148436,662.109966796875L455.61001577148437,662.109966796875C453.82001577148435,662.109966796875,453.07001577148435,661.209966796875,453.07001577148435,659.569966796875C452.9200157714844,657.179966796875,452.7700157714844,654.780066796875,452.6199157714844,652.389966796875C451.7200157714844,641.319966796875,450.82991577148437,630.259966796875,449.9299157714844,619.189966796875C449.63001577148435,615.450016796875,449.32991577148437,611.859986796875,449.0300157714844,607.970031796875C447.5300157714844,608.420043796875,446.0400157714844,607.220031796875,445.13991577148437,609.320006796875C439.1599157714844,622.629966796875,432.8799157714844,635.939966796875,426.7399157714844,649.249966796875C426.5900157714844,649.6999667968751,426.2899157714844,649.999966796875,425.9899157714844,650.590066796875C425.69001577148435,649.990066796875,425.5399157714844,649.689966796875,425.2399157714844,649.249966796875L407.2899157714844,610.210026796875C406.38991577148437,608.119994796875,405.19991577148437,607.520019796875,402.9499557714844,608.270019796875C402.79995577148435,610.210026796875,402.6499657714844,612.309996796875,402.4999357714844,614.249996796875C401.29992577148437,628.909966796875,400.10992577148437,643.719966796875,398.9099457714844,658.369966796875C398.60995577148435,661.809966796875,398.4599257714844,661.960066796875,395.0199257714844,662.109966796875C394.71993977148435,662.109966796875,394.2699277714844,662.259966796875,393.8199157714844,662.259966796875L393.8199157714844,665.100066796875L396.80990577148435,665.100066796875C400.3999057714844,665.100066796875,401.59991577148435,663.900066796875,401.8999057714844,660.460066796875C402.1998857714844,657.619966796875,402.49990577148435,654.629966796875,402.6499057714844,651.780066796875C403.5498957714844,639.370066796875,404.4399157714844,626.949966796875,405.1899157714844,614.540036796875C405.1899157714844,614.390016796875,405.33991577148436,614.240046796875,405.63991577148437,613.640016796875C406.38991577148437,615.590026796875,406.9899157714844,617.230036796875,407.7299157714844,618.869966796875C412.95991577148436,630.239966796875,418.34991577148435,641.599966796875,423.57991577148437,652.969966796875C424.02991577148435,654.019966796875,424.77991577148435,654.169966796875,425.6699157714844,654.169966796875C426.71991577148435,654.169966796875,427.6099157714844,654.169966796875,428.0599157714844,652.969966796875C433.7399157714844,640.409966796875,439.57991577148437,627.839966796875,445.4099157714844,615.279966796875C445.5599157714844,614.979976796875,445.70991577148436,614.679996796875,446.0099157714844,614.079956796875C446.45991577148436,620.509966796875,446.9099157714844,626.489966796875,447.3599157714844,632.619966796875C448.1099157714844,642.189966796875,448.8599157714844,651.919966796875,449.75001577148436,661.489966796875C449.89991577148436,663.879966796875,451.25001577148436,665.0799667968749,453.6400157714844,665.229966796875C455.2900157714844,665.379966796875,456.7800157714844,665.229966796875,458.43001577148436,665.229966796875C461.87001577148436,665.229966796875,463.2200157714844,664.329866796875,464.4100157714844,661.039966796875C466.20001577148435,656.399866796875,468.00001577148436,651.769866796875,469.6400157714844,647.129966796875C470.0900157714844,645.779966796875,470.8400157714844,645.339966796875,472.18001577148436,645.339966796875C479.06001577148436,645.489966796875,485.94001577148435,645.489966796875,492.82001577148435,645.339966796875C494.3199157714844,645.339966796875,495.0599157714844,645.789966796875,495.5099157714844,647.129966796875C497.2999157714844,651.919966796875,499.09991577148435,656.849866796875,500.88991577148437,661.639966796875C501.63991577148437,663.729966796875,503.1299157714844,664.779966796875,505.22991577148434,665.0799667968749C508.2599157714844,665.409966796875,508.5599157714844,665.099966796875,507.95991577148436,662.109966796875ZM471.7700157714844,642.069966796875C475.5100157714844,631.900066796875,479.1000157714844,622.030066796875,482.8400157714844,612.010006796875C486.58001577148434,622.030066796875,490.1700157714844,631.900066796875,494.0599157714844,642.069966796875L471.7700157714844,642.069966796875Z" fill="#234D95" fill-opacity="1"/></g><g><path d="M390.54997192382814,619.3400245117188C391.4499719238281,613.6600345117188,389.9499719238281,610.6600345117188,384.86997192382813,608.5700045117187C380.0799719238281,606.6300045117188,374.9999719238281,606.1799925117188,369.90997192382815,607.8200045117187C364.3800019238281,609.6099845117187,360.48999192382814,613.2000145117188,359.5899919238281,619.1900245117188C358.6900029238281,625.0200245117187,361.3800019238281,629.3600245117187,366.1699819238281,632.3500245117187C368.85997192382814,634.0000245117187,371.84997192382815,635.3399245117188,374.6999719238281,636.8399245117188C377.8399719238281,638.4900245117187,381.1299719238281,639.8299245117188,383.8199719238281,641.9300245117188C390.9999719238281,647.4600245117188,389.4999719238281,657.9300245117188,381.2799719238281,661.5200245117187C377.3899719238281,663.1700245117188,373.4999719238281,663.3100245117188,369.60997192382814,661.6700245117188C366.16995192382814,660.3200245117188,363.0299719238281,658.2300245117187,359.5899619238281,656.2800245117187C359.2899819238281,656.5800245117188,358.6899719238281,657.3300245117188,357.9399719238281,658.0700245117188C358.2399599238281,658.5200245117187,358.38998392382814,658.8200245117188,358.6899719238281,659.1200245117187C364.8199719238281,664.9500245117188,372.1499719238281,667.2000245117188,380.5299719238281,665.1000245117187C386.65997192382815,663.6000245117187,390.54997192382814,659.2699245117187,391.5999719238281,652.9900245117187C392.4999719238281,647.0100245117187,390.3999719238281,642.0700245117188,385.4699719238281,638.6300245117187C382.47997192382815,636.6900245117188,379.1899719238281,635.1900245117188,376.04997192382814,633.5500245117188C372.90997192382815,631.8999245117187,369.4699719238281,630.4099245117187,366.7799719238281,628.3200245117188C360.4999719238281,623.3800245117187,361.8399619238281,614.7100245117188,369.0199719238281,611.4199845117188C372.4599719238281,609.7799645117187,376.1999719238281,609.6300045117188,379.9399719238281,610.3699945117188C385.61997192382813,611.5700045117187,386.9699719238281,613.2100245117188,387.7199719238281,618.8900245117187C387.7199719238281,619.0400245117188,387.86997192382813,619.0400245117188,388.0199719238281,619.1900245117188C388.7599719238281,619.3400245117188,389.65997192382815,619.3400245117188,390.54997192382814,619.3400245117188Z" fill="#234D95" fill-opacity="1"/></g><g><path d="M576.4600407958984,665.1099537109375L576.4600407958984,611.1199937109375L593.2100407958984,611.1199937109375C594.4100407958985,611.1199937109375,594.9999407958984,611.8699937109375,594.9999407958984,613.0599937109375L594.9999407958984,616.7999837109375L598.2899407958985,616.7999837109375L598.2899407958985,613.5100137109375C598.2899407958985,609.0200197109375,597.5399407958985,608.2800293109375,593.1999407958984,608.2800293109375L556.4099607958984,608.2800293109375C555.6599607958984,608.2800293109375,554.7599307958984,608.1300047109376,554.0199407958985,608.4300537109375C553.1199207958985,608.8800657109375,551.9299167958984,609.4800437109375,551.7799527958985,610.2200337109375C551.3299407958984,612.3100537109375,551.4799647958985,614.5600537109375,551.3299407958984,616.8000537109375L554.6199207958985,616.8000537109375L554.6199207958985,613.5100737109375C554.4698907958984,611.8600437109375,555.2198907958984,611.1200537109376,557.0099307958984,611.1200537109376L566.1299407958984,611.1200537109376L573.3099407958985,611.1200537109376L573.3099407958985,665.2600537109375C574.2199407958984,665.1099537109375,575.1199407958984,665.1099537109375,576.4600407958984,665.1099537109375Z" fill="#234D95" fill-opacity="1"/></g><g><path d="M333.57000366210934,648.2100659179688C333.57000366210934,652.5500659179687,333.7200036621094,656.7400659179688,333.57000366210934,660.7700659179687C333.42000366210937,663.3099659179687,332.07000366210934,664.5099659179688,329.5300036621094,664.9600659179688C328.6300036621094,665.1100659179688,327.8800036621094,665.1100659179688,326.99000366210936,665.1100659179688L300.9700036621094,665.1100659179688C296.1799936621094,665.1100659179688,294.54000366210937,663.6100659179688,294.54000366210937,658.6800659179687L294.54000366210937,621.4400659179687C294.54000366210937,618.6000659179688,294.54000366210937,618.6000659179688,291.70001366210937,618.6000659179688L289.1600036621094,618.6000659179688L289.1600036621094,606.6300659179688L291.25000366210935,606.6300659179688L325.2000036621094,606.6300659179688C330.29000366210937,606.6300659179688,331.7800036621094,608.1300659179688,331.7800036621094,613.3600459179687L331.7800036621094,623.6800659179687L318.92000366210937,623.6800659179687C318.92000366210937,622.9300659179687,318.7700036621094,622.4800659179688,318.7700036621094,621.8800659179688C318.7700036621094,619.0400659179687,318.4700036621094,618.7400659179688,315.7800036621094,618.7400659179688L310.25000366210935,618.7400659179688C309.80000366210936,618.7400659179688,308.9000036621094,619.3400659179688,308.9000036621094,619.6400659179687C308.75000366210935,622.9300659179687,308.9000036621094,626.0700659179688,308.9000036621094,629.5100659179687L325.3500036621094,629.5100659179687L325.3500036621094,641.6200659179688L308.9000036621094,641.6200659179688C308.9000036621094,645.0600659179687,308.75000366210935,648.2000659179688,309.05000366210936,651.3400659179688C309.05000366210936,651.9399659179687,310.4000036621094,652.8400659179688,311.1400036621094,652.8400659179688C313.5300036621094,652.9900659179688,315.93000366210936,652.9900659179688,318.3200036621094,652.8400659179688C320.56000366210935,652.8400659179688,320.86000366210936,652.5400659179687,321.0100036621094,650.1500659179687L321.0100036621094,648.0500659179687C325.05000366210936,648.2100659179688,329.23000366210937,648.2100659179688,333.57000366210934,648.2100659179688Z" fill="#234D95" fill-opacity="1"/></g><g><path d="M245.6300048828125,618.5899935546875L245.6300048828125,608.1200535546875C245.6300048828125,607.6700435546875,245.7799988828125,607.3700565546875,245.7799988828125,606.9200439546875C251.1600048828125,606.9200439546875,256.4000048828125,606.7700195546875,261.6300048828125,606.9200439546875C263.2800048828125,606.9200439546875,264.6200048828125,608.1200535546875,264.9200048828125,609.9100335546875C265.0700048828125,610.9600235546875,265.2200048828125,612.1500235546876,265.2200048828125,613.2000135546875L265.2200048828125,649.9999935546875C265.2200048828125,652.6899935546875,265.5200048828125,652.9899935546875,268.2100048828125,652.9899935546875L274.1900048828125,652.9899935546875C276.4300048828125,652.9899935546875,277.0300048828125,652.5399935546875,276.8800048828125,650.2999935546875C276.7300048828125,648.3599935546875,277.4800048828125,647.9099935546875,279.2700048828125,648.0599935546875C282.1100048828125,648.2099935546875,285.1000048828125,648.2099935546875,287.9400048828125,648.0599935546875C289.29000488281247,648.0599935546875,289.7300048828125,648.5099935546875,289.7300048828125,649.8499935546874L289.7300048828125,659.4199935546875C289.5800048828125,663.7599935546875,288.0800048828125,665.2499935546875,283.7500048828125,665.2499935546875L257.1300048828125,665.2499935546875C256.3800048828125,665.2499935546875,255.6300048828125,665.0999935546874,255.0400348828125,664.9499935546875C252.6500348828125,664.4999935546875,251.6000348828125,663.4499935546875,251.3000348828125,661.0599935546875C251.1500348828125,659.8599935546875,251.00003488281249,658.5199935546875,251.00003488281249,657.3199935546875L251.00003488281249,622.7699935546875C251.00003488281249,618.8799935546875,251.00003488281249,618.8799935546875,247.2600248828125,618.8799935546875C246.6699948828125,618.7399935546875,246.2200008828125,618.5899935546875,245.6300048828125,618.5899935546875Z" fill="#234D95" fill-opacity="1"/></g><g><path d="M546.5499360107422,657.7800086914062C545.9500360107422,656.5800086914062,545.4999360107422,655.5400086914062,544.8999360107422,654.3400086914063C542.3599360107422,649.2500086914063,539.8099360107421,644.1700086914062,537.1199360107422,638.9300086914062C541.0099360107422,637.8801086914062,544.2999360107422,635.9401086914063,546.3899360107422,632.2001086914063C551.7699360107422,622.4801086914063,547.2899360107422,607.6700436914062,532.7799360107422,607.8200683614062L511.5399660107422,607.8200683614062C509.1499480107422,607.8200683614062,508.9999540107422,607.9700926914062,509.59996001074217,610.6600986914062C511.2499560107422,610.8101186914063,512.8899360107422,610.8101186914063,514.6899860107421,610.9600786914062L514.6899860107421,664.8001086914062L517.9799660107421,664.8001086914062L517.9799660107421,639.5201086914062C522.0199360107422,639.5201086914062,525.9099360107422,639.6701086914062,529.7999360107422,639.5201086914062C532.7899360107422,639.3700086914063,534.4400360107422,640.7201086914063,535.7799360107422,643.2601086914062C538.6199360107422,649.0901086914063,541.4599360107422,654.7801086914062,544.3099360107421,660.4601086914063C546.2499360107422,664.5001086914062,548.3499360107422,665.5501086914062,552.9799360107422,664.8001086914062L552.9799360107422,662.2601086914062C548.4899360107422,661.6700086914062,548.4899360107422,661.6700086914062,546.5499360107422,657.7800086914062ZM532.3400360107422,636.6900086914062L517.9800260107422,636.6900086914062L517.9800260107422,610.9600186914063L523.2100360107422,610.9600186914063L532.7800360107422,610.9600186914063C542.8000360107421,610.9600186914063,546.2400360107422,618.7400086914063,545.0400360107421,626.0700086914062C543.7100360107422,633.1000086914063,539.3699360107422,636.6900086914062,532.3400360107422,636.6900086914062Z" fill="#234D95" fill-opacity="1"/></g><g><path d="M390.54999877929686,619.3399971679687L387.85999877929686,619.3399971679687C387.7099987792969,619.1899971679687,387.55999877929685,619.1899971679687,387.55999877929685,619.0399971679687C386.9599987792969,613.3600471679688,385.61999877929685,611.7100171679688,379.7799987792969,610.5100071679688C376.03999877929687,609.7600071679688,372.4499987792969,609.9100371679688,368.85999877929686,611.5599971679687C361.6799887792969,614.8499771679687,360.32998877929685,623.6699971679687,366.61999877929685,628.4599971679687C369.4599987792969,630.5500971679687,372.7499987792969,632.0500971679687,375.8899987792969,633.6899971679687C379.0299987792969,635.3299971679687,382.3199987792969,636.8299971679687,385.30999877929685,638.7799971679688C390.2499987792969,642.2199971679687,392.3399987792969,647.1599971679688,391.43999877929684,653.1399971679688C390.3899987792969,659.5699971679687,386.4999987792969,663.7599971679688,380.36999877929685,665.2499971679688C372.1399987792969,667.3499971679687,364.82000877929687,665.0999971679687,358.5299987792969,659.2699971679688C358.2300107792969,658.9699971679687,358.07998677929686,658.6699971679687,357.7799987792969,658.2199971679687C358.5299987792969,657.4699971679687,359.1300087792969,656.7199971679687,359.4299887792969,656.4300971679687C362.86999877929685,658.3700971679688,366.0099787792969,660.4699971679687,369.4499987792969,661.8100971679687C373.1899987792969,663.3100971679687,377.22999877929686,663.3100971679687,381.11999877929685,661.6599971679688C389.34999877929687,658.0699971679687,390.8399987792969,647.5999971679687,383.65999877929687,642.0699971679687C380.9699987792969,639.9799971679688,377.67999877929685,638.6299971679688,374.53999877929687,636.9899971679688C371.6999987792969,635.4899971679688,368.7099987792969,634.1499971679688,366.01000877929687,632.4999971679688C361.2199987792969,629.5099971679688,358.5299987792969,625.1699971679687,359.43001877929686,619.3399971679687C360.3300187792969,613.3600471679688,364.22002877929685,609.7700171679687,369.7499987792969,607.9700271679687C374.8399987792969,606.3300171679688,379.7699987792969,606.7700191679687,384.7099987792969,608.7200271679687C389.9599987792969,610.8099971679687,391.4499987792969,613.6500271679688,390.54999877929686,619.3399971679687Z" fill="#234D95" fill-opacity="1"/></g><g><path d="M576.4600482177734,665.1099682617188L573.1700482177735,665.1099682617188L573.1700482177735,610.9699682617188L565.9900482177734,610.9699682617188L556.8700382177734,610.9699682617188C555.2200182177735,610.9699682617188,554.4800282177735,611.5699482617188,554.4800282177735,613.3599882617187L554.4800282177735,616.6499682617188L551.1900482177734,616.6499682617188C551.3400722177735,614.4099682617187,551.1900482177734,612.1599682617187,551.6400602177735,610.0699482617188C551.7900852177735,609.3199482617188,552.9900382177734,608.7199702617188,553.8800482177735,608.2799682617188C554.6300482177735,607.9799802617188,555.3800482177735,608.1299438617187,556.2700682177734,608.1299438617187L593.0600482177734,608.1299438617187C597.4000482177735,608.1299438617187,598.1500482177735,608.8799442617187,598.1500482177735,613.3599282617188L598.1500482177735,616.6498982617187L594.8600482177734,616.6498982617187L594.8600482177734,612.9099082617188C594.8600482177734,611.7098982617188,594.4100482177735,610.9699082617187,593.0701482177734,610.9699082617187L576.3201482177734,610.9699082617187C576.4600482177734,629.0599682617187,576.4600482177734,647.0099682617188,576.4600482177734,665.1099682617188Z" fill="#234D95" fill-opacity="1"/></g></g><g><path d="M395.0400085449219,170.61000061035156C289.8300085449219,170.61000061035156,204.54000854492188,255.90000061035158,204.54000854492188,361.11000061035156C204.54000854492188,466.32000061035154,289.8300085449219,551.6100006103516,395.0400085449219,551.6100006103516C500.25000854492185,551.6100006103516,585.5400085449219,466.32000061035154,585.5400085449219,361.11000061035156C585.5400085449219,255.90000061035158,500.25000854492185,170.61000061035156,395.0400085449219,170.61000061035156ZM395.0400085449219,539.6100006103516C296.4600085449219,539.6100006103516,216.54000854492188,459.69000061035155,216.54000854492188,361.11000061035156C216.54000854492188,262.5300006103516,296.4600085449219,182.61000061035156,395.0400085449219,182.61000061035156C493.62000854492186,182.61000061035156,573.5400085449219,262.5300006103516,573.5400085449219,361.11000061035156C573.5400085449219,459.69000061035155,493.62000854492186,539.6100006103516,395.0400085449219,539.6100006103516Z" fill="#47B1ED" fill-opacity="1"/></g></g></svg>