<?xml version="1.0" encoding="utf-8"?>
<!-- Generator: Adobe Illustrator 23.0.0, SVG Export Plug-In . SVG Version: 6.00 Build 0)  -->
<svg version="1.1" id="图层_1" xmlns="http://www.w3.org/2000/svg" xmlns:xlink="http://www.w3.org/1999/xlink" x="0px" y="0px"
	 viewBox="0 0 785.74 873.39" style="enable-background:new 0 0 785.74 873.39;" xml:space="preserve">
<style type="text/css">
	.st0{fill:#47B1ED;}
	.st1{fill:#55E7AD;}
	.st2{fill:#234D95;}
</style>
<path class="st0" d="M557.8,361.59c0,35.54-11.39,68.42-30.72,95.17l-71.02-71.02c1.29-2.24,2.02-4.83,2.02-7.6
	c0-8.47-6.87-15.34-15.33-15.34c-2.77,0-5.36,0.73-7.6,2.02L299.91,229.59c26.76-19.34,59.64-30.73,95.16-30.73
	c27.1,0,52.64,6.62,75.12,18.34l-37.92,37.92c-2-1-4.26-1.56-6.66-1.56c-8.25,0-14.94,6.69-14.94,14.94
	c0,8.24,6.69,14.93,14.94,14.93c8.25,0,14.94-6.69,14.94-14.93c0-2.78-0.77-5.39-2.1-7.62l39.4-39.4
	c24.21,14.34,44.39,34.77,58.42,59.19l-37.38,37.38c-2.12-1.39-4.69-2-7.08-2c-8.25,0-14.94,6.69-14.94,14.94
	c0,8.24,6.69,14.93,14.94,14.93c8.25,0,14.94-6.69,14.94-14.93c0-2.78-0.77-5.39-2.1-7.62l35.5-35.5
	C551.44,309.97,557.8,335.04,557.8,361.59z"/>
<path class="st1" d="M429.92,386.02l-37.92,38.21c-2.42-1.7-5.38-2.69-8.55-2.69c-3.33,0-6.41,1.09-8.9,2.95l-43.93-41.28
	c0.66-1.67,1.01-3.49,1.01-5.39c0-8.25-6.69-14.94-14.94-14.94c-8.25,0-14.93,6.69-14.93,14.94c0,1.99,0.39,3.89,1.1,5.63l-52.92,51
	c-11.3-22.15-17.66-47.23-17.66-73.81c0-51.11,23.57-96.71,60.41-126.53l136.58,136.58c-1.16,2.11-1.81,4.55-1.81,7.13
	C427.47,380.85,428.37,383.68,429.92,386.02z"/>
<path class="st2" d="M521.55,462.96c-29.83,36.85-75.43,60.4-126.54,60.4c-60.28,0-112.9-32.77-141.01-81.46l53.79-52.1
	c2.48,1.85,5.56,2.94,8.89,2.94c3.44,0,6.61-1.17,9.14-3.13l43.81,41.17c-0.88,1.9-1.12,3.46-1.12,5.68
	c0,8.25,6.68,14.94,14.93,14.94c8.25,0,14.94-6.69,14.94-14.94c0-2.2-0.47-4.28-1.33-6.17l38.56-39.19
	c2.04,1.04,4.35,1.63,6.78,1.63c2.58,0,5.01-0.65,7.12-1.81L521.55,462.96z"/>
<g>
	<path class="st2" d="M333.57,648.21h-12.86v2.09c0,2.24-0.3,2.69-2.69,2.69c-2.39,0-4.79,0.15-7.18,0c-0.75,0-1.94-1.05-2.09-1.5
		c-0.15-3.14-0.15-6.28-0.15-9.72h16.45v-12.11h-16.45v-9.87c0-0.3,0.9-0.9,1.35-0.9c1.79-0.15,3.74,0,5.53,0
		c2.69,0,2.99,0.3,2.99,3.14c0,0.6,0,1.2,0.15,1.79h12.86v-10.32c0-5.23-1.5-6.58-6.58-6.73h-33.95h-2.09v11.97h2.54
		c2.84,0,2.84,0,2.84,2.84v37.24c0,4.93,1.5,6.43,6.43,6.43h26.02c0.9,0,1.79,0,2.54-0.15c2.54-0.45,3.89-1.65,4.04-4.19
		C333.72,656.73,333.57,652.54,333.57,648.21"/>
	<path class="st2" d="M242.19,650.3c-4.94-13.91-10.02-27.67-14.96-41.58c-0.45-1.34-1.05-1.94-2.69-1.94
		c-3.74,0.15-7.63,0.15-11.37,0c-1.5,0-2.09,0.45-2.54,1.79c-4.94,13.76-10.02,27.67-14.81,41.43c-0.75,1.94-1.5,3.44-4.04,3.14
		v11.97c3.59,0,7.03,0.15,10.47,0c2.54-0.15,4.34-1.5,5.09-4.04c0.75-2.24,1.65-4.49,2.24-6.73c0.3-1.2,0.9-1.5,2.09-1.5h14.06
		c1.2,0,1.79,0.45,2.09,1.5c0.75,2.39,1.5,4.79,2.39,7.18c0.6,1.79,1.79,3.14,3.59,3.29c3.89,0.15,7.93,0,11.97,0v-11.97
		C243.53,653.59,242.78,652.09,242.19,650.3 M213.62,641.03c1.79-6.43,3.59-12.86,5.38-19.44c1.79,6.58,3.59,12.86,5.38,19.44
		H213.62z"/>
	<path class="st2" d="M245.63,618.59c0.75,0,1.05,0.15,1.5,0.15c3.74,0.15,3.74,0.15,3.74,3.89v34.55c0,1.2,0,2.54,0.3,3.74
		c0.3,2.39,1.35,3.44,3.74,3.89c0.75,0.15,1.5,0.3,2.09,0.3h26.62c4.34,0,5.83-1.5,5.98-5.83c0.15-3.14,0-6.43,0-9.57
		c0-1.35-0.45-1.79-1.79-1.79c-2.84,0-5.83,0.15-8.67,0c-1.79-0.15-2.54,0.45-2.39,2.24c0.15,2.24-0.45,2.69-2.69,2.69h-5.98
		c-2.69,0-2.99-0.3-2.99-2.99v-36.79c0-1.05-0.15-2.24-0.3-3.29c-0.3-1.8-1.65-2.99-3.29-2.99c-5.23-0.15-10.62,0-15.85,0
		c0,0.45-0.15,0.75-0.15,1.2C245.48,611.56,245.63,615,245.63,618.59"/>
	<path class="st2" d="M507.96,662.11c-2.69,0.3-3.59-1.5-4.49-3.74c-5.98-16.15-12.11-32.3-18.1-48.61c-0.45-1.2-0.9-2.09-2.39-1.94
		c-1.65,0-2.24,0.6-2.84,2.09c-6.13,16.6-12.41,33.06-18.55,49.66c-0.6,1.79-1.65,2.54-3.59,2.54h-2.39c-1.79,0-2.54-0.9-2.54-2.54
		c-0.15-2.39-0.3-4.79-0.45-7.18c-0.9-11.07-1.79-22.13-2.69-33.2c-0.3-3.74-0.6-7.33-0.9-11.22c-1.5,0.45-2.99-0.75-3.89,1.35
		c-5.98,13.31-12.26,26.62-18.4,39.93c-0.15,0.45-0.45,0.75-0.75,1.34c-0.3-0.6-0.45-0.9-0.75-1.34l-17.95-39.04
		c-0.9-2.09-2.09-2.69-4.34-1.94c-0.15,1.94-0.3,4.04-0.45,5.98c-1.2,14.66-2.39,29.47-3.59,44.12c-0.3,3.44-0.45,3.59-3.89,3.74
		c-0.3,0-0.75,0.15-1.2,0.15v2.84h2.99c3.59,0,4.79-1.2,5.09-4.64c0.3-2.84,0.6-5.83,0.75-8.68c0.9-12.41,1.79-24.83,2.54-37.24
		c0-0.15,0.15-0.3,0.45-0.9c0.75,1.95,1.35,3.59,2.09,5.23c5.23,11.37,10.62,22.73,15.85,34.1c0.45,1.05,1.2,1.2,2.09,1.2
		c1.05,0,1.94,0,2.39-1.2c5.68-12.56,11.52-25.13,17.35-37.69c0.15-0.3,0.3-0.6,0.6-1.2c0.45,6.43,0.9,12.41,1.35,18.54
		c0.75,9.57,1.5,19.3,2.39,28.87c0.15,2.39,1.5,3.59,3.89,3.74c1.65,0.15,3.14,0,4.79,0c3.44,0,4.79-0.9,5.98-4.19
		c1.79-4.64,3.59-9.27,5.23-13.91c0.45-1.35,1.2-1.79,2.54-1.79c6.88,0.15,13.76,0.15,20.64,0c1.5,0,2.24,0.45,2.69,1.79
		c1.79,4.79,3.59,9.72,5.38,14.51c0.75,2.09,2.24,3.14,4.34,3.44C508.26,665.41,508.56,665.1,507.96,662.11 M471.77,642.07
		c3.74-10.17,7.33-20.04,11.07-30.06c3.74,10.02,7.33,19.89,11.22,30.06H471.77z"/>
	<path class="st2" d="M390.55,619.34c0.9-5.68-0.6-8.68-5.68-10.77c-4.79-1.94-9.87-2.39-14.96-0.75
		c-5.53,1.79-9.42,5.38-10.32,11.37c-0.9,5.83,1.79,10.17,6.58,13.16c2.69,1.65,5.68,2.99,8.53,4.49c3.14,1.65,6.43,2.99,9.12,5.09
		c7.18,5.53,5.68,16-2.54,19.59c-3.89,1.65-7.78,1.79-11.67,0.15c-3.44-1.35-6.58-3.44-10.02-5.39c-0.3,0.3-0.9,1.05-1.65,1.79
		c0.3,0.45,0.45,0.75,0.75,1.05c6.13,5.83,13.46,8.08,21.84,5.98c6.13-1.5,10.02-5.83,11.07-12.11c0.9-5.98-1.2-10.92-6.13-14.36
		c-2.99-1.94-6.28-3.44-9.42-5.08c-3.14-1.65-6.58-3.14-9.27-5.23c-6.28-4.94-4.94-13.61,2.24-16.9c3.44-1.64,7.18-1.79,10.92-1.05
		c5.68,1.2,7.03,2.84,7.78,8.52c0,0.15,0.15,0.15,0.3,0.3C388.76,619.34,389.66,619.34,390.55,619.34"/>
	<path class="st2" d="M576.46,665.11v-53.99h16.75c1.2,0,1.79,0.75,1.79,1.94v3.74h3.29v-3.29c0-4.49-0.75-5.23-5.09-5.23h-36.79
		c-0.75,0-1.65-0.15-2.39,0.15c-0.9,0.45-2.09,1.05-2.24,1.79c-0.45,2.09-0.3,4.34-0.45,6.58h3.29v-3.29
		c-0.15-1.65,0.6-2.39,2.39-2.39h9.12h7.18v54.14C574.22,665.11,575.12,665.11,576.46,665.11"/>
	<path class="st2" d="M333.57,648.21c0,4.34,0.15,8.53,0,12.56c-0.15,2.54-1.5,3.74-4.04,4.19c-0.9,0.15-1.65,0.15-2.54,0.15h-26.02
		c-4.79,0-6.43-1.5-6.43-6.43v-37.24c0-2.84,0-2.84-2.84-2.84h-2.54v-11.97h2.09h33.95c5.09,0,6.58,1.5,6.58,6.73v10.32h-12.86
		c0-0.75-0.15-1.2-0.15-1.8c0-2.84-0.3-3.14-2.99-3.14h-5.53c-0.45,0-1.35,0.6-1.35,0.9c-0.15,3.29,0,6.43,0,9.87h16.45v12.11
		h-16.45c0,3.44-0.15,6.58,0.15,9.72c0,0.6,1.35,1.5,2.09,1.5c2.39,0.15,4.79,0.15,7.18,0c2.24,0,2.54-0.3,2.69-2.69v-2.1
		C325.05,648.21,329.23,648.21,333.57,648.21"/>
	<path class="st2" d="M245.63,618.59v-10.47c0-0.45,0.15-0.75,0.15-1.2c5.38,0,10.62-0.15,15.85,0c1.65,0,2.99,1.2,3.29,2.99
		c0.15,1.05,0.3,2.24,0.3,3.29V650c0,2.69,0.3,2.99,2.99,2.99h5.98c2.24,0,2.84-0.45,2.69-2.69c-0.15-1.94,0.6-2.39,2.39-2.24
		c2.84,0.15,5.83,0.15,8.67,0c1.35,0,1.79,0.45,1.79,1.79v9.57c-0.15,4.34-1.65,5.83-5.98,5.83h-26.62c-0.75,0-1.5-0.15-2.09-0.3
		c-2.39-0.45-3.44-1.5-3.74-3.89c-0.15-1.2-0.3-2.54-0.3-3.74v-34.55c0-3.89,0-3.89-3.74-3.89
		C246.67,618.74,246.22,618.59,245.63,618.59"/>
	<path class="st2" d="M546.55,657.78c-0.6-1.2-1.05-2.24-1.65-3.44c-2.54-5.09-5.09-10.17-7.78-15.41c3.89-1.05,7.18-2.99,9.27-6.73
		c5.38-9.72,0.9-24.53-13.61-24.38h-21.24c-2.39,0-2.54,0.15-1.94,2.84c1.65,0.15,3.29,0.15,5.09,0.3v53.84h3.29v-25.28
		c4.04,0,7.93,0.15,11.82,0c2.99-0.15,4.64,1.2,5.98,3.74c2.84,5.83,5.68,11.52,8.53,17.2c1.94,4.04,4.04,5.09,8.67,4.34v-2.54
		C548.49,661.67,548.49,661.67,546.55,657.78 M532.34,636.69h-14.36v-25.73h5.23h9.57c10.02,0,13.46,7.78,12.26,15.11
		C543.71,633.1,539.37,636.69,532.34,636.69"/>
	<path class="st2" d="M390.55,619.34h-2.69c-0.15-0.15-0.3-0.15-0.3-0.3c-0.6-5.68-1.94-7.33-7.78-8.53
		c-3.74-0.75-7.33-0.6-10.92,1.05c-7.18,3.29-8.53,12.11-2.24,16.9c2.84,2.09,6.13,3.59,9.27,5.23c3.14,1.64,6.43,3.14,9.42,5.09
		c4.94,3.44,7.03,8.38,6.13,14.36c-1.05,6.43-4.94,10.62-11.07,12.11c-8.23,2.1-15.55-0.15-21.84-5.98c-0.3-0.3-0.45-0.6-0.75-1.05
		c0.75-0.75,1.35-1.5,1.65-1.79c3.44,1.94,6.58,4.04,10.02,5.38c3.74,1.5,7.78,1.5,11.67-0.15c8.23-3.59,9.72-14.06,2.54-19.59
		c-2.69-2.09-5.98-3.44-9.12-5.08c-2.84-1.5-5.83-2.84-8.53-4.49c-4.79-2.99-7.48-7.33-6.58-13.16c0.9-5.98,4.79-9.57,10.32-11.37
		c5.09-1.64,10.02-1.2,14.96,0.75C389.96,610.81,391.45,613.65,390.55,619.34"/>
	<path class="st2" d="M576.46,665.11h-3.29v-54.14h-7.18h-9.12c-1.65,0-2.39,0.6-2.39,2.39v3.29h-3.29c0.15-2.24,0-4.49,0.45-6.58
		c0.15-0.75,1.35-1.35,2.24-1.79c0.75-0.3,1.5-0.15,2.39-0.15h36.79c4.34,0,5.09,0.75,5.09,5.23v3.29h-3.29v-3.74
		c0-1.2-0.45-1.94-1.79-1.94h-16.75C576.46,629.06,576.46,647.01,576.46,665.11"/>
</g>
<path class="st0" d="M395.04,170.61c-105.21,0-190.5,85.29-190.5,190.5s85.29,190.5,190.5,190.5s190.5-85.29,190.5-190.5
	S500.25,170.61,395.04,170.61z M395.04,539.61c-98.58,0-178.5-79.92-178.5-178.5s79.92-178.5,178.5-178.5s178.5,79.92,178.5,178.5
	S493.62,539.61,395.04,539.61z"/>
</svg>
